<?xml version="1.0" encoding="UTF-8" standalone="no"?>
<svg
   xmlns:dc="http://purl.org/dc/elements/1.1/"
   xmlns:cc="http://creativecommons.org/ns#"
   xmlns:rdf="http://www.w3.org/1999/02/22-rdf-syntax-ns#"
   xmlns:svg="http://www.w3.org/2000/svg"
   xmlns="http://www.w3.org/2000/svg"
   version="1.1"
   id="svg58764"
   viewBox="0 0 1429.6048 1167.2439"
   height="329.42218mm"
   width="403.46625mm">
  <defs
     id="defs58766" />
  <metadata
     id="metadata58769">
    <rdf:RDF>
      <cc:Work
         rdf:about="">
        <dc:format>image/svg+xml</dc:format>
        <dc:type
           rdf:resource="http://purl.org/dc/dcmitype/StillImage" />
        <dc:title></dc:title>
      </cc:Work>
    </rdf:RDF>
  </metadata>
  <g
     transform="translate(30.314006,165.52467)"
     id="layer1">
    <path
       id="path59323"
       d="m 673.25905,998.96935 c -0.57672,-1.5125 -0.76558,-4.6454 -0.41969,-6.9619 0.37288,-2.4973 0.16058,-5.087 -0.52151,-6.3615 -0.67834,-1.2675 -1.13568,-6.7522 -1.1145,-13.3657 0.0329,-10.2678 -0.17458,-11.5477 -2.45385,-15.1385 l -2.48975,-3.9224 0.6409,9 c 0.3525,4.95 1.05397,11.2229 1.55882,13.9399 0.59901,3.2236 0.56697,5.2908 -0.0922,5.95 -0.55556,0.5555 -1.01012,3.3102 -1.01012,6.1215 0,3.7618 -0.53839,5.6894 -2.03896,7.3 -2.26379,2.4299 -4.45522,2.816 -5.58721,0.9845 -0.40931,-0.6623 -0.85021,-15.8498 -0.97977,-33.75 -0.23894,-33.0104 -0.88896,-45.0619 -2.60987,-48.388 -3.29154,-6.3616 -38.25496,-14.7946 -73.19226,-17.6536 -5.99943,-0.4909 -12.07443,-1.3482 -13.5,-1.9051 -1.42556,-0.5569 -10.80608,-1.4938 -20.84559,-2.082 -10.03952,-0.5882 -19.28255,-1.4607 -20.54008,-1.9388 -1.28077,-0.4869 -5.97501,-0.4974 -10.67274,-0.024 -4.61248,0.4649 -8.73547,0.6296 -9.1622,0.3659 -0.70181,-0.4338 -3.35827,-0.053 -17.87132,2.5647 -7.71636,1.3915 -52.98497,2.8745 -60.75,1.9901 -0.9625,-0.1096 -9.175,0.066 -18.25,0.3903 -9.075,0.3243 -29.325,0.8141 -45,1.0883 -15.675,0.2742 -40.40871,0.7992 -54.96381,1.1665 -38.52395,0.9724 -66.9814,0.9968 -71.40808,0.061 l -3.87189,-0.8182 0.60819,10.3182 c 0.33451,5.675 0.78323,19.0932 0.99716,29.8182 0.21393,10.725 0.70908,22.875 1.10033,27 0.78684,8.2956 -0.0421,10.4303 -4.4619,11.4899 -5.03331,1.2066 -6.29213,-1.1252 -7.46482,-13.8279 -0.58772,-6.3663 -0.81524,-12.6072 -0.50559,-13.8686 0.30965,-1.2614 0.46434,-15.1184 0.34374,-30.7934 -0.12059,-15.675 0.21308,-30.7907 0.74148,-33.5904 1.10146,-5.8361 4.99651,-10.3119 11.24028,-12.9162 3.60753,-1.5048 3.81193,-1.8131 3.18315,-4.8007 -0.36956,-1.756 -0.75435,-6.1888 -0.85508,-9.8508 -0.16408,-5.9644 -0.46964,-6.8835 -2.93316,-8.8225 -1.5125,-1.1905 -2.75,-2.6814 -2.75,-3.313 0,-1.34 -11.0171,-12.7064 -12.31594,-12.7064 -0.48319,0 -2.97228,-2.3618 -5.5313,-5.2485 -2.55902,-2.8867 -9.27939,-9.8991 -14.93416,-15.5831 -5.65478,-5.6841 -11.04696,-11.5347 -11.98262,-13.0015 -0.93567,-1.4668 -2.51063,-3.2648 -3.49991,-3.9955 -0.98928,-0.7308 -7.03157,-8.3808 -13.42731,-17 -10.20145,-13.7481 -20.48613,-26.658 -22.44273,-28.1714 -0.35553,-0.275 -2.34387,-3.425 -4.41853,-7 -2.07466,-3.575 -4.82407,-7.772 -6.1098,-9.3267 -1.28574,-1.5547 -2.3377,-3.3997 -2.3377,-4.1 0,-0.7003 -1.35,-3.1368 -3,-5.4146 -1.65,-2.2778 -3,-4.7418 -3,-5.4757 0,-0.7339 -1.125,-2.3913 -2.5,-3.683 -1.375,-1.2917 -2.5,-2.7449 -2.5,-3.2292 0,-0.4843 -1.8,-3.5312 -4,-6.7708 -2.2,-3.2396 -4,-6.5222 -4,-7.2946 0,-0.7725 -1.34181,-3.3847 -2.9818,-5.8049 -1.63999,-2.4203 -2.98999,-5.006 -3,-5.7461 -0.01,-0.7401 -0.85003,-2.5401 -1.86672,-4 -1.01669,-1.4599 -3.23889,-5.5794 -4.93823,-9.1544 -10.016577,-21.07246 -12.213727,-25.95684 -12.218087,-27.16137 -0.003,-0.73625 -1.99996,-5.76279 -4.43844,-11.17009 -2.43847,-5.4073 -4.72639,-11.2573 -5.08426,-13 -0.35787,-1.7427 -1.9262,-6.09354 -3.48517,-9.66854 -1.55897,-3.575 -3.82026,-10.89008 -5.02507,-16.25573 -1.67723,-7.46952 -2.97817,-10.78722 -5.55138,-14.15724 -1.84843,-2.42082 -3.82798,-6.48621 -4.399,-9.03419 -1.24991,-5.57736 -5.90306,-18.97841 -9.21974,-26.55284 -1.32459,-3.025 -3.00094,-7.975 -3.72522,-11 -0.72428,-3.025 -1.89091,-6.175 -2.59249,-7 -0.70159,-0.825 -1.7449,-3.075 -2.31848,-5 -2.48815,-8.3505 -10.40016,-29.9248 -13.05499,-35.59804 -1.59192,-3.40185 -3.21163,-7.62954 -3.59937,-9.39488 -0.38773,-1.76534 -1.87852,-5.75162 -3.31286,-8.8584 -1.43435,-3.10677 -2.71314,-6.09868 -2.84175,-6.64868 -0.12862,-0.55 -1.66383,-4.6 -3.41159,-9 -1.74775,-4.4 -4.11312,-10.475 -5.25638,-13.5 -1.14326,-3.025 -2.43872,-5.9275 -2.87881,-6.45 -0.44009,-0.5225 -0.80053,-2.0975 -0.80098,-3.5 -10e-4,-4.51831 -3.06071,-17.38168 -4.9988201,-21.01873 -1.03497,-1.9422 -2.0978,-5.10627 -2.36186,-7.03127 -0.65892,-4.80363 -3.19265,-15.85826 -4.46941,-19.5 -0.57848004,-1.65 -1.83102004,-5.925 -2.78341,-9.5 -0.9524,-3.575 -2.32879,-7.21043 -3.05866,-8.07874 -0.72987,-0.86771 -1.32703,-2.21997 -1.32703,-3.00442 0,-0.78445 -2.24051,-5.92402 -4.9789099,-11.42126 -2.7384,-5.49724 -4.9884,-10.5889 -5,-11.3148 -0.0116,-0.72591 -1.27235,-3.20092 -2.80166,-5.50001 -3.21274,-4.82987 -4.38802,-7.26895 -6.83279,-14.18018 -0.97279,-2.75 -2.3042,-5.9 -2.95871,-7 -0.6545,-1.1 -1.46443,-4.83921 -1.79984,-8.30935 -0.6091,-6.30174 -0.60532,-6.31352 3.13104,-9.77272 2.05748,-1.90486 4.86587,-3.73614 6.24087,-4.06952 1.375,-0.33338 4.075,-1.38917 6,-2.34619 9.2223599,-4.58496 19.5285499,-5.36257 32.5,-2.45215 7.04104,1.57981 11.31866,3.62086 12.79969,6.10734 0.43983,0.73843 1.87169,1.34259 3.18191,1.34259 1.51036,0 3.17122,1.10806 4.53807,3.02763 2.1557,3.02739 11.65931,8.62672 12.7651,7.52093 0.89196,-0.89195 3.15559,-7.28369 5.252,-14.82989 1.03615,-3.72973 2.15642,-7.22224 2.48947,-7.76113 0.33305,-0.53889 1.66892,-5.37139 2.96859,-10.7389 2.4546,-10.1372 5.52462,-18.47319 10.57664,-28.71864 1.62723,-3.3 3.24608,-7.575 3.59745,-9.5 0.35137,-1.925 1.87955,-6.08457 3.39597,-9.24349 1.51641,-3.15892 3.06541,-7.65892 3.44221,-10 0.3768,-2.34108 1.26747,-5.17781 1.97926,-6.30384 0.71178,-1.12603 2.03086,-4.95103 2.93129,-8.5 0.90042,-3.54897 2.72044,-8.70267 4.04448,-11.45267 1.32404,-2.75 3.87426,-8.6 5.66715,-13 1.79289,-4.4 5.369897,-11.84427 7.948907,-16.54283 2.579,-4.69855 6.08084,-12.01853 7.78185,-16.26662 1.70102,-4.24808 5.46588,-11.42929 8.36636,-15.95825 2.90048,-4.52895 5.7236,-8.95288 6.2736,-9.83094 6.25021,-9.97834 11.6683,-17.899343 14.75,-21.563823 2.0625,-2.45254 3.75,-5.05813 3.75,-5.7902 0,-0.73206 1.9601,-3.51719 4.35577,-6.18918 2.39568,-2.67198 6.43204,-8.00815 8.96969,-11.85815 2.53766,-3.85 6.87673,-9.90542 9.64238,-13.45649 2.76565,-3.55108 5.28462,-7.26358 5.5977,-8.25 0.31308,-0.98643 0.91692,-1.79351 1.34187,-1.79351 0.77102,0 5.66349,-4.83123 27.84862,-27.5 6.45918,-6.6 15.35709,-15.3815099 19.77313,-19.5144599 11.43695,-10.7038101 12.47084,-13.2772001 12.47084,-31.0403801 0,-7.74215 0.44694,-14.91176 0.9932,-15.93246 0.54626,-1.02069 1.18223,-5.60361 1.41326,-10.18426 0.23104,-4.58064 0.93034,-10.80344 1.554,-13.82844 0.62367,-3.025 1.57623,-8.875 2.11681,-13 2.32724,-17.758457 3.63646,-24.695557 5.22781,-27.700337 0.93221,-1.76019 1.69492,-4.02716 1.69492,-5.03773 0,-2.11946 6.31043,-17.68493 8.21828,-20.27143 0.70495,-0.9557 3.22799,-4.51957 5.60676,-7.9197 2.37877,-3.40013 5.52877,-6.71005 7,-7.35537 1.47123,-0.64533 3.02736,-1.73196 3.45807,-2.41475 0.43071,-0.68278 2.63172,-1.7392 4.89113,-2.3476 2.25941,-0.60839 5.86221,-2.21355 8.00623,-3.567 4.67065,-2.94846 15.38894,-3.56437 19.11184,-1.09823 7.58277,5.023 16.96758,16.8389 18.69833,23.54205 0.6632,2.56855 2.10493,7.5951 3.20385,11.1701 1.76393,5.73838 1.94275,8.49192 1.52612,23.5 -0.25956,9.349997 -0.089,18.012497 0.37898,19.249997 1.21539,3.21378 3.73109,2.80536 10.77912,-1.75 3.40382,-2.2 6.43001,-4 6.72486,-4 0.29484,0 2.50797,-1.35669 4.91805,-3.01487 2.41008,-1.65818 6.49319,-3.91985 9.07357,-5.025927 2.58038,-1.10608 6.53957,-3.23689 8.7982,-4.73513 2.25864,-1.49824 6.80661,-3.92424 10.10661,-5.3911 20.09323,-8.93156 24.44859,-10.75045 28.5,-11.9022 4.50759,-1.28142 5.62674,-1.74278 14,-5.7713 2.475,-1.19076 5.40635,-2.16378 6.51412,-2.16225 2.06953,0.003 8.55166,-2.24376 16.48588,-5.71377 2.475,-1.08244 5.70032,-2.26327 7.16738,-2.62407 1.56529,-0.38497 5.61527,-3.92075 9.80213,-8.55763 5.89472,-6.5283 7.77746,-7.99607 10.83262,-8.44505 2.03383,-0.29889 5.13955,-0.84194 6.90161,-1.20678 2.77285,-0.57412 4.02751,-0.0369 9.3285,3.99458 l 6.12476,4.65791 4.23684,-2.05102 c 4.84902,-2.34737 11.64703,-3.67048 23.10616,-4.49719 4.4,-0.31744 11.6,-0.98688 16,-1.48764 4.4,-0.50077 8.9,-0.93544 10,-0.96594 5.29103,-0.14671 14.63392,-1.00621 16.22211,-1.49236 1.74587,-0.53441 17.04997,-1.11573 58.77789,-2.23266 30.09813,-0.80564 37.52869,-0.58682 40.23248,1.18477 1.73741,1.13839 2.7726,1.23969 4.30234,0.42099 4.24206,-2.27028 20.29788,-1.17646 24.43768,1.66485 1.1575,0.7944 4.6363,1.35379 8.4192,1.35379 5.3572,0 7.3722,0.52237 11.9237,3.09109 4.3116,2.4333 6.3504,3.00265 9.5809,2.67549 2.257,-0.22858 5.517,-0.037 7.2444,0.42573 1.7807,0.47703 4.1783,0.44681 5.537,-0.0698 1.5896,-0.60435 3.647,-0.48118 6.1108,0.36583 2.0429,0.70231 7.2012,1.5882 11.4629,1.96865 4.2617,0.38045 10.6085,1.55826 14.1039,2.61736 3.4955,1.0591 9.0229,1.92563 12.2833,1.92563 4.1922,0 7.309,0.68238 10.6446,2.33051 2.5943,1.28178 7.4168,2.8747 10.7168,3.53983 6.8439,1.37943 10.9019,2.69026 21.5,6.94501 4.125,1.65604 9.525,3.67836 12,4.49404 8.4157,2.77355 21.4932,7.97437 23.4725,9.33483 1.0849,0.74568 2.7131,1.35578 3.6182,1.35578 0.9051,0 5.5165,2.025 10.2475,4.5 4.7311,2.475 9.2672,4.5 10.0803,4.5 0.8132,0 2.7391,1.17251 4.28,2.60558 1.5408,1.43307 5.3562,3.897997 8.4787,5.477617 3.1224,1.57963 5.9362,3.29126 6.2529,3.80363 0.7159,1.15839 16.9377,12.11317 17.9371,12.11317 0.4009,0 3.0698,1.48295 5.9308,3.29544 2.8611,1.81249 7.002,4.12682 9.202,5.14297 2.2,1.01614 5.6888,3.35819 7.7529,5.20456 2.1765,1.94698 4.8219,3.35703 6.2979,3.35703 1.4304,0 6.3564,2.5332 11.2472,5.7839 4.7861,3.18115 10.8395,7.02512 13.452,8.54216 2.6125,1.51703 4.75,3.19495 4.75,3.7287 0,0.53375 2.5875,2.10024 5.75,3.48109 4.0764,1.77988 7.7874,4.61594 12.75,9.74387 3.85,3.97828 10.82326,10.15532 15.49606,13.72676 7.3063,5.58407 20.7859,17.6376901 39.1334,34.99352 2.6165,2.475 6.4702,6.60195 8.5638,9.171 2.0937,2.56905 7.898,9.33488 12.8985,15.03519 5.0005,5.70031 10.667,12.59836 12.5922,15.329 1.9253,2.73065 6.6089,9.28045 10.4082,14.55512 3.7993,5.27467 8.0328,11.49418 9.4078,13.82113 1.375,2.32696 3.9625,6.0414 5.75,8.25431 1.7875,2.21291 3.25,4.39865 3.25,4.85719 0,1.11841 6.9246,12.961793 9.0491,15.477063 0.9291,1.1 3.0245,4.7 4.6563,8 1.6319,3.3 4.1403,8.25 5.5743,11 4.0961,7.85499 8.7203,18.45313 8.7203,19.98587 0,0.76785 0.45,1.6742 1,2.01412 0.55,0.33992 1,1.32539 1,2.18993 0,0.86455 2.2235,6.12549 4.9411,11.69099 6.6534,13.62577 10.6263,23.25319 14.2859,34.61908 1.6824,5.225 4.344,12.65 5.9148,16.5 1.5707,3.85 3.1176,8.575 3.4376,10.5 0.7689,4.62595 3.6769,14.06285 11.7097,38 0.8306,2.475 2.7444,9.675 4.2529,16 1.5086,6.325 3.3005,12.625 3.9822,14 1.796,3.62292 2.8647,10.66701 2.5975,17.12079 -0.2767,6.68465 0.2332,7.72304 13.3088,27.10216 1.7086,2.53224 4.7165,4.83312 9.4048,7.19413 6.8179,3.43342 10.8655,7.16995 13.6958,12.643 0.8021,1.55117 3.2265,3.87468 5.3875,5.16335 9.2659,5.52552 18.7913,14.83041 24.8519,24.27658 2.4701,3.85 5.243,8.125 6.1621,9.5 0.919,1.375 2.5011,4.3 3.5158,6.5 1.0147,2.2 3.2414,6.00716 4.9483,8.46035 4.1792,6.00674 10.2675,17.02267 17.5264,31.71151 3.3082,6.69452 6.5162,12.48159 7.1287,12.86016 1.3992,0.86478 4.9482,9.03817 4.9482,11.3959 0,0.96916 0.9,2.57659 2,3.57208 1.1,0.99549 2,2.55612 2,3.46808 0,1.58469 8.0726,18.20702 9.9335,20.4541 1.4604,1.76351 12.3518,22.79971 20.4912,39.57782 2.5347,5.225 5.951,11.975 7.5917,15 1.6407,3.025 2.9832,6.00021 2.9834,6.61158 10e-5,0.61136 1.7661,4.88636 3.9243,9.5 2.1583,4.61363 4.2438,9.73842 4.6343,11.38842 0.3906,1.65 1.2454,3.675 1.8996,4.5 1.4749,1.86016 7.542,15.61966 7.542,17.10443 0,0.59776 0.841,2.2813 1.8688,3.7412 1.0278,1.4599 2.2144,3.77937 2.6368,5.15437 0.4225,1.375 1.8315,3.77203 3.1312,5.32673 1.2998,1.55469 2.3632,3.70422 2.3632,4.77672 0,2.61857 4.6982,17.37688 7.1742,22.53621 1.0926,2.27681 2.3712,5.65181 2.8413,7.5 0.47,1.84814 1.4741,5.83534 2.2312,8.86034 0.7572,3.025 2.0847,6.625 2.9501,8 0.8653,1.375 1.8752,4.9347 2.244,7.9105 0.3689,2.9758 1.3206,6.3385 2.1149,7.4725 2.1052,3.0056 1.7686,6.3603 -0.8057,8.0315 -4.9359,3.2043 -15.3949,5.6421 -26.25,6.1184 -7.9556,0.3491 -25.5002,2.2693 -31.5,3.4476 -8.0404,1.5791 -18.8435,3.1456 -24.0335,3.4849 -2.4934,0.1631 -7.8934,1.6467 -12,3.2969 -4.1066,1.6503 -10.1665,3.5497 -13.4665,4.221 -3.3,0.6712 -7.35,1.8168 -9,2.5457 -1.65,0.7289 -5.0108,1.6392 -7.4685,2.0229 -2.4576,0.3838 -7.6712,2.1572 -11.5856,3.9411 -3.9144,1.7839 -8.8786,3.8109 -11.0315,4.5045 -6.7424,2.1721 -18.805,8.0731 -21.4144,10.4758 -1.375,1.2661 -3.625,2.6313 -5,3.0337 -1.375,0.4024 -6.9219,3.7154 -12.3265,7.3623 -5.4047,3.6469 -11.468,7.5034 -13.4742,8.5701 -2.0062,1.0667 -6.1464,4.4695 -9.2005,7.5618 -3.0541,3.0923 -7.0461,6.4945 -8.871,7.5606 -1.825,1.066 -4.1797,3.6164 -5.2328,5.6676 -1.053,2.0512 -3.1805,4.384 -4.7276,5.1841 -1.5472,0.8 -3.3979,2.1593 -4.1127,3.0206 -2.261,2.7243 -6.6921,1.8883 -11.1004,-2.0943 -4.3011,-3.8858 -4.862,-6.7531 -1.7078,-8.7304 1.2888,-0.8079 2.2681,-0.7691 3.7365,0.1479 1.0944,0.6835 2.446,1.2427 3.0034,1.2427 1.5995,0 1.1802,-3.9988 -0.4864,-4.6384 -0.825,-0.3166 -1.5,-1.247 -1.5,-2.0677 0,-2.0982 -8.5801,-9.9639 -12.9924,-11.9107 -2.1917,-0.9669 -4.4198,-2.9931 -5.5027,-5.004 -1.0009,-1.8586 -2.0865,-3.3878 -2.4124,-3.3984 -0.3259,-0.011 -2.3876,-1.5855 -4.5816,-3.5 -2.194,-1.9144 -4.444,-3.482 -5,-3.4834 -0.556,0 -3.6796,-1.6118 -6.9414,-3.5786 -7.0968,-4.2792 -13.1414,-5.0578 -14.9305,-1.9231 -0.6264,1.0976 -2.7427,4.0226 -4.7028,6.5 -1.9601,2.4774 -4.7286,6.5293 -6.1524,9.0043 -1.4237,2.475 -4.0232,6.3 -5.7765,8.5 -1.7534,2.2 -3.7842,5.4263 -4.513,7.1695 -0.7287,1.7432 -2.1907,3.6328 -3.2487,4.1991 -1.0581,0.5662 -3.891,3.64 -6.2953,6.8305 -2.4043,3.1905 -6.7517,8.355 -9.6609,11.4767 -2.9092,3.1216 -5.2894,6.1101 -5.2894,6.6411 0,1.5345 -7.2996,9.953 -10.9926,12.6776 -1.8516,1.3661 -4.5962,4.5892 -6.099,7.1624 -1.5029,2.5732 -3.6688,5.1797 -4.8131,5.7921 -1.1444,0.6124 -8.1083,6.9495 -15.4753,14.0823 -21.798,21.1047 -25.91046,24.8129 -35.79216,32.2729 -5.1754,3.907 -12.5917,9.7752 -16.4807,13.0406 -3.889,3.2654 -8.1455,6.49842 -9.459,7.18452 -1.3135,0.6862 -3.0631,1.8604 -3.8881,2.6094 -1.735,1.5752 -15.05,10.3613 -15.7022,10.3613 -0.2406,0 -2.3996,1.35 -4.7978,3 -2.3982,1.65 -4.6852,3 -5.0823,3 -0.3971,0 -2.566,1.3712 -4.8198,3.0472 -8.5433,6.3527 -17.4283,11.7566 -20.405,12.4104 -1.6991,0.3732 -4.7494,1.9979 -6.7786,3.6105 -2.0291,1.6125 -4.4149,2.9685 -5.3018,3.0132 -0.8869,0.045 -3.8625,1.3402 -6.6125,2.8788 -19.1895,10.7365 -38.2265,19.0539 -63.5,27.7433 -4.125,1.4182 -8.4,3.137 -9.5,3.8195 -1.1,0.6825 -3.9576,1.5316 -6.3503,1.8869 -2.3926,0.3552 -5.9926,1.5057 -8,2.5565 -5.9928,3.1371 -14.213,6.1813 -15.4724,5.73 -0.6475,-0.232 -2.3023,0.1382 -3.6773,0.8227 -1.375,0.6845 -4.525,1.5662 -7,1.9593 -2.475,0.3932 -7.65,1.5992 -11.5,2.68 -11.8188,3.3179 -25.3333,5.9697 -40,7.8487 -3.3,0.4228 -8.7,1.4413 -12,2.2635 -3.3,0.8221 -8.4941,1.5559 -11.5425,1.6308 -7.5684,0.1857 -16.87146,1.7824 -18.56245,3.1858 -0.76728,0.6368 -1.39505,2.4205 -1.39505,3.9639 0,2.7475 -2.20438,5.94895 -4.09618,5.94895 -0.52433,0 -1.42519,-1.2375 -2.00191,-2.74995 z m 29.59809,-34.1757 c 11.5934,-1.6315 26.5938,-4.7984 30.5645,-6.4526 1.8895,-0.7873 5.6855,-1.7209 8.4355,-2.0749 5.5688,-0.7167 11.5111,-1.9855 19,-4.0571 2.75,-0.7606 7.7,-1.9321 11,-2.6032 3.3,-0.6712 7.125,-1.7551 8.5,-2.4089 1.375,-0.6537 6.775,-2.4083 12,-3.8991 17.1538,-4.8944 32.4008,-10.3908 39.1543,-14.1149 1.4599,-0.805 3.2188,-1.4636 3.9087,-1.4636 1.1727,0 11.7753,-4.7868 20.1084,-9.0785 2.0193,-1.0399 6.2943,-2.8575 9.5,-4.0391 3.2057,-1.1816 6.2786,-2.486 6.8286,-2.8986 0.55,-0.4126 5.9132,-3.2704 11.9181,-6.3506 6.005,-3.0803 11.855,-6.4534 13,-7.4959 2.0724,-1.8868 15.2399,-9.1373 16.594,-9.1373 0.6938,0 13.0072,-8.1352 17.9879,-11.8842 1.375,-1.0349 8.0352,-5.8026 14.8005,-10.5948 6.7653,-4.7922 13.0653,-9.5162 14,-10.4978 0.9347,-0.9815 4.0177,-3.1996 6.851,-4.9291 2.8333,-1.7294 5.8569,-4.2211 6.7192,-5.5371 0.8623,-1.3161 4.3941,-4.5432 7.8486,-7.1715 3.4544,-2.6283 8.6665,-6.8278 11.5826,-9.3321 6.7858,-5.8278 42.68546,-41.5572 46.89296,-46.6706 1.7572,-2.1355 5.0166,-6.0441 7.2431,-8.6856 2.2265,-2.6416 4.5718,-5.7916 5.2118,-7 0.64,-1.2085 2.7806,-3.7767 4.7569,-5.7072 4.2368,-4.1387 12.4125,-14.7349 15.3299,-19.8686 8.645,-15.2125 8.781,-15.9431 2.72,-14.6119 -1.9997,0.4392 -3.5698,1.7465 -4.7256,3.9345 -1.6359,3.0967 -6.6878,9.7144 -10.4278,13.6597 -0.9333,0.9845 -2.3715,3.0946 -3.1961,4.6892 -0.8246,1.5946 -2.986,4.4681 -4.8032,6.3855 -7.5119,7.9263 -25.3306,28.0656 -25.6744,29.018 -0.2038,0.5646 -2.2203,2.6639 -4.4813,4.6651 -2.2609,2.0012 -9.1459,8.701 -15.3,14.8885 -6.1541,6.1875 -11.67496,11.25 -12.26866,11.25 -0.5937,0 -1.0795,0.3497 -1.0795,0.7771 0,1.616 -16.7988,17.855 -21.5,20.7835 -1.65,1.0278 -6.15,4.6007 -10,7.9398 -8.0843,7.0114 -16.9246,13.9139 -22.4126,17.4996 -2.1044,1.375 -6.675,4.6375 -10.1569,7.25 -3.4819,2.6125 -6.722,4.75 -7.2004,4.75 -0.4784,0 -2.8686,1.3752 -5.3116,3.0561 -2.4431,1.6809 -5.7867,3.5249 -7.4302,4.0978 -1.6436,0.573 -2.9883,1.455 -2.9883,1.9601 0,0.5051 -1.6875,1.6808 -3.75,2.6127 -2.0625,0.9318 -4.5774,2.3871 -5.5887,3.2338 -2.2552,1.8883 -13.6218,8.328 -19.4573,11.0235 -2.3627,1.0914 -5.7377,3.0776 -7.5,4.4138 -1.7622,1.3361 -5.8498,3.3547 -9.0835,4.4856 -3.2337,1.1309 -7.0587,2.8439 -8.5,3.8066 -3.1061,2.0748 -26.8914,11.2426 -29.2712,11.2824 -0.9079,0.015 -4.0579,1.1482 -7,2.5178 -2.9421,1.3697 -6.0452,2.4947 -6.8957,2.5 -0.8506,0.01 -4.4506,1.5746 -8,3.4871 -3.5495,1.9125 -7.4423,3.4875 -8.6507,3.5 -1.2084,0.013 -4.3129,1.1477 -6.8989,2.5227 -2.586,1.375 -5.7379,2.5 -7.0041,2.5 -2.1539,0 -4.2758,0.5072 -18.3999,4.3982 -4.9655,1.3679 -10.8219,2.8713 -22.5,5.7758 -2.2,0.5472 -7.375,1.4051 -11.5,1.9066 -18.099,2.2002 -29.1028,4.6587 -30.4245,6.7973 -0.2808,0.4542 -3.889,0.6091 -8.0183,0.3441 -7.41568,-0.4759 -7.52049,-0.4487 -8.53255,2.2132 -0.56356,1.4822 -1.02465,3.1619 -1.02465,3.7325 0,1.1967 12.0482,0.659 24.5,-1.0934 z m -34.41919,-27.6717 c 0.56896,-0.6855 0.37478,-2.5861 -0.51124,-5.004 -1.42515,-3.8891 -1.42843,-3.8778 -1.33907,4.6014 0.0493,4.675 0.27932,6.9268 0.51124,5.004 0.23192,-1.9228 0.8345,-3.9934 1.33907,-4.6014 z m -1.34677,-34.0699 c -0.61215,-5.4309 -3.04875,-7.8076 -8.97605,-8.7554 -2.11494,-0.3382 -4.61319,-0.9979 -5.55166,-1.4661 -12.47696,-6.2239 -23.95742,-8.9224 -57.63525,-13.5475 -5.46091,-0.75 -10.5062,-1.1421 -11.21177,-0.8713 -0.70556,0.2707 -2.76254,-0.2611 -4.57107,-1.1818 -1.80853,-0.9206 -7.33824,-2.2867 -12.28824,-3.0356 -4.95,-0.7489 -13.65304,-2.4433 -19.34009,-3.7653 -11.68599,-2.7166 -11.83502,-2.6518 -10.82639,4.7069 0.38635,2.8188 0.13789,4.924 -0.71954,6.0966 -1.24605,1.7041 -1.41421,1.6866 -3.46182,-0.361 -1.23542,-1.2355 -2.15216,-3.4156 -2.15216,-5.1183 0,-1.6313 -0.63835,-4.4438 -1.41855,-6.25 -1.93613,-4.4821 -5.13661,-18.785 -4.80171,-21.4588 0.14982,-1.1961 -0.18933,-2.4602 -0.75367,-2.809 -0.56434,-0.3488 -1.02607,-2.3176 -1.02607,-4.3751 0,-2.0576 -0.40791,-4.1685 -0.90648,-4.691 -0.49856,-0.5225 -1.39437,-4.1592 -1.99068,-8.0815 -0.61176,-4.0239 -2.17242,-9.0352 -3.58148,-11.5 -1.67688,-2.9334 -2.50123,-5.9076 -2.50931,-9.0534 -0.007,-2.5767 -0.52367,-5.9517 -1.14897,-7.5 -1.29499,-3.2065 -2.76435,-9.8632 -3.53092,-15.9963 -0.28743,-2.2996 -1.37975,-4.9569 -2.42738,-5.905 -1.04763,-0.9481 -1.90478,-2.468 -1.90478,-3.3777 0,-0.9096 -0.66069,-2.5273 -1.4682,-3.595 -0.8075,-1.0676 -1.4825,-2.6826 -1.5,-3.5889 -0.0175,-0.9063 -1.77995,-7.6563 -3.91657,-15 -2.13662,-7.3437 -4.41857,-15.3111 -5.071,-17.7052 -1.29095,-4.7373 -1.82524,-4.8632 -8.72374,-2.0557 -3.86941,1.5747 -7.35493,0.312 -9.91232,-3.5911 -2.1252,-3.2435 -1.05736,-5.4796 5.01418,-10.5002 4.22211,-3.4913 6.55777,-7.0123 6.59989,-9.9494 0.0122,-0.8528 0.90222,-2.6756 1.97776,-4.0506 1.07554,-1.375 1.96553,-3.703 1.97776,-5.1733 0.0122,-1.4703 1.05403,-3.9453 2.31511,-5.5 4.82694,-5.9508 5.75865,-8.1523 5.1256,-12.1112 -0.45163,-2.8244 -0.19618,-4.1551 0.98598,-5.1362 0.87755,-0.7283 1.59555,-2.3675 1.59555,-3.6427 0,-1.2752 0.42921,-2.5838 0.95379,-2.908 0.52458,-0.3243 1.25682,-3.268 1.6272,-6.5417 0.37037,-3.2736 1.74117,-8.0612 3.04621,-10.639 1.76529,-3.48686 2.38094,-6.37168 2.4046,-11.26738 0.0203,-4.19421 0.56422,-7.28444 1.5,-8.52165 0.80751,-1.06762 1.4682,-3.28862 1.4682,-4.93555 0,-1.64693 0.89112,-3.94297 1.98027,-5.10231 1.45048,-1.54398 2.0897,-3.9059 2.38935,-8.82867 0.225,-3.69643 0.8621,-7.27688 1.41577,-7.95656 0.55367,-0.67968 1.48446,-2.81078 2.06843,-4.73578 0.58396,-1.925 1.96605,-5.975 3.07132,-9 1.10526,-3.025 2.02426,-6.86237 2.04221,-8.52749 0.018,-1.66513 0.65321,-3.91513 1.41166,-5 0.75846,-1.08488 1.9344,-4.67251 2.6132,-7.97251 0.6788,-3.3 2.23903,-8.7 3.46716,-12 1.22814,-3.3 2.54087,-8.67036 2.91718,-11.93414 0.37631,-3.26378 1.13609,-6.47863 1.6884,-7.14412 0.55231,-0.6655 1.2757,-3.62013 1.60754,-6.56586 0.33184,-2.94574 1.03432,-6.19422 1.56108,-7.21886 0.52675,-1.02464 1.3427,-5.52464 1.81321,-10 1.35468,-12.88516 3.63995,-25.59098 5.8701,-32.63702 2.58009,-8.15167 2.59503,-10.48809 0.0831,-13 -2.35759,-2.35759 -2.58089,-6.18382 -0.54246,-9.29486 0.93296,-1.42388 1.13803,-2.74149 0.56978,-3.66094 -0.48827,-0.79004 -0.52013,-2.13568 -0.0708,-2.99032 0.44934,-0.85463 0.35071,-4.09719 -0.21918,-7.20568 -0.93245,-5.08602 -0.82252,-5.98696 1.0981,-9 5.08605,-7.9789 11.66397,-24.95418 13.69741,-35.3482 2.26038,-11.55395 2.59064,-12.86833 4.05832,-16.15113 0.77484,-1.73312 1.40881,-3.84406 1.40881,-4.69098 0,-0.84692 0.40084,-1.78759 0.89075,-2.09037 1.15106,-0.71137 6.10929,-10.18032 6.10929,-11.6671 0,-0.62501 1.34724,-2.67081 2.99386,-4.54621 1.64662,-1.8754 3.90405,-5.19394 5.0165,-7.37452 1.86266,-3.65111 7.48756,-11.57489 18.62076,-26.23104 2.40288,-3.16324 4.36888,-6.61018 4.36888,-7.65987 0,-1.04968 1.96744,-3.78361 4.37208,-6.07538 2.40465,-2.29178 4.98745,-5.36984 5.73957,-6.84014 0.75211,-1.4703 3.82053,-6.27327 6.81869,-10.67327 8.22201,-12.06632 19.72267,-37.24754 22.12735,-48.44885 0.53737,-2.50313 1.36793,-5.45115 1.84569,-6.55115 0.47776,-1.1 1.43088,-4.025 2.11804,-6.5 0.68716,-2.475 2.53845,-7.81787 4.11398,-11.87304 1.57553,-4.05517 2.8646,-8.22378 2.8646,-9.26357 0,-1.99595 1.35694,-4.78683 4.25,-8.74115 1.02817,-1.40533 1.75,-4.17578 1.75,-6.71663 0,-3.28836 0.58347,-4.87353 2.43489,-6.61514 1.33919,-1.25976 3.40684,-4.76547 4.59478,-7.79047 4.89184,-12.45676 9.78984,-26.9722 10.48025,-31.0587 0.74096,-4.38572 4.20632,-14.46457 7.19478,-20.92581 3.6014,-7.78622 3.4758,-9.61082 -1.0524,-15.29927 -4.33571,-5.44662 -5.74021,-7.55011 -7.82289,-11.71621 -0.68737,-1.375 -2.05519,-3.57319 -3.03959,-4.88486 -0.9844,-1.31167 -1.78982,-3.208343 -1.78982,-4.214813 0,-1.00648 -0.84589,-2.28267 -1.87975,-2.83597 -1.03386,-0.55331 -2.5899,-2.78087 -3.45787,-4.95013 -0.86797,-2.16927 -1.93714,-4.16601 -2.37595,-4.43721 -1.3977,-0.86382 -6.1015,0.47201 -7.66598,2.17707 -0.83061,0.90525 -3.40229,3.79422 -5.71484,6.41994 -2.31254,2.62572 -5.75367,5.509103 -7.64695,6.407523 -1.89328,0.89842 -3.70567,2.3501 -4.02755,3.22597 -0.32187,0.87586 -0.84305,1.82138 -1.15817,2.10115 -2.57778,2.2886 -5.44317,6.36543 -6.4286,9.14652 -0.65185,1.83964 -3.42599,7.34347 -6.16476,12.23073 -2.73877,4.88725 -6.47849,11.63724 -8.31049,14.99999 -1.832,3.36274 -3.9215,6.78908 -4.64332,7.61408 -1.77367,2.02719 -9.62291,18.96311 -12.51361,27 -1.28586,3.575 -2.67062,6.95 -3.07727,7.5 -0.40664,0.55 -1.27012,3.025 -1.91884,5.5 -0.64872,2.475 -2.35839,6.525 -3.79925,9 -4.45408,7.65085 -17.2168,33.7574 -17.2168,35.21751 0,0.76037 -0.44814,1.83063 -0.99586,2.37835 -0.54772,0.54772 -1.91901,4.52033 -3.04729,8.828 -1.17145,4.47247 -2.87696,8.52792 -3.9759,9.45414 -1.05846,0.8921 -3.82085,5.447 -6.13865,10.122 -2.31779,4.675 -6.6055,11.40006 -9.52823,14.94457 -2.92274,3.54451 -5.31407,6.96948 -5.31407,7.61103 0,0.64156 -2.8125,3.85417 -6.25,7.13914 -6.03167,5.76404 -11.63949,11.69653 -16.63942,17.6028 -1.31417,1.5524 -2.43917,3.80053 -2.5,4.99585 -0.0871,1.71207 -0.91662,2.30426 -3.90861,2.79035 -2.31409,0.37595 -5.0677,1.84764 -7.04761,3.76665 -3.60436,3.49348 -7.81552,4.12589 -11.28624,1.6949 -1.14229,-0.80009 -4.72992,-1.90738 -7.97251,-2.46065 -11.09556,-1.89316 -11.44332,-2.10821 -15.58769,-9.63919 -4.26305,-7.74667 -4.35606,-9.58645 -0.93177,-18.43133 1.16812,-3.01724 2.12427,-6.16724 2.12479,-7 5.1e-4,-0.83277 2.51633,-6.46412 5.59071,-12.51412 3.07437,-6.05 6.47909,-13.25 7.56603,-16 1.08695,-2.75 3.03378,-7.25 4.3263,-10 3.20043,-6.80932 6.51602,-16.65499 6.51602,-19.34938 0,-1.21892 1.76655,-6.81396 3.92567,-12.43342 2.15912,-5.61946 4.20975,-12.75068 4.55696,-15.84716 0.34721,-3.09648 1.93399,-9.17148 3.52619,-13.5 1.59219,-4.32852 3.66643,-10.12004 4.60942,-12.87004 1.8211,-5.31084 3.52054,-9.5117 6.47274,-16 1.95302,-4.29233 5.40959,-13.80373 7.08656,-19.5 0.56672,-1.925 1.36378,-3.94999 1.77126,-4.49999 2.27121,-3.06564 5.31479,-23.10083 4.38225,-28.8474 -0.41699,-2.56961 -0.13995,-4.22488 0.90801,-5.42522 1.9108,-2.188663 3.81133,-8.050873 3.65126,-11.262373 -0.28008,-5.61934 2.69056,-40.96259 4.66191,-55.46501 0.8981,-6.60701 3.34131,-21.47099 4.84896,-29.4999999 0.87784,-4.675 1.59669,-10.35754 1.59744,-12.62788 7.5e-4,-2.27033 0.68861,-5.7726801 1.52858,-7.7830001 0.92735,-2.21947 1.75764,-8.45369 2.11388,-15.87212 0.381,-7.93407 1.28164,-14.41842 2.56905,-18.49651 l 1.98237,-6.27952 -2.19826,-4.72048 c -2.64618,-5.68235 -4.7579,-8.20887 -6.89924,-8.25442 -0.87725,-0.0187 -3.39501,-0.90339 -5.59501,-1.96607 -2.86362,-1.38323 -6.19225,-1.94178 -11.71662,-1.96607 l -7.71662,-0.0339 -5.01769,4.45642 c -2.75973,2.45103 -5.83555,4.89412 -6.83515,5.42909 -1.49949,0.8025 -12.25823,15.45937 -14.2933,19.47208 -0.31866,0.62832 -1.55616,3.03156 -2.75,5.34053 -1.19384,2.30896 -2.17062,4.86194 -2.17062,5.67327 0,0.81134 -1.10788,2.7918 -2.46196,4.40103 -1.35407,1.60923 -2.95198,5.13125 -3.55089,7.82672 -0.59892,2.69547 -2.36994,8.95086 -3.93561,13.9008601 -1.56567,4.95000004 -3.3886,12.375 -4.05095,16.4999999 -0.66235,4.125 -1.58031,8.625 -2.03991,10 -1.39674,4.17871 -1.88422,8.0178 -2.47604,19.5 -0.31183,6.05 -0.73225,12.125 -0.93425,13.5 -1.10985,7.55458 -2.48804,12.10528 -4.40368,14.54062 -1.18069,1.501 -2.14671,3.46828 -2.14671,4.37173 0,0.90345 -0.67134,2.6011 -1.49186,3.77256 -1.45155,2.07239 -3.84835,14.14894 -5.42113,27.315093 -0.99284,8.31126 -3.45917,18.66744 -7.71224,32.38388 -1.85612,5.98612 -3.37477,11.72242 -3.37477,12.74732 0,2.15986 -5.62295,14.5997 -7.67838,16.98713 -2.62125,3.04464 -8.15421,12.84431 -9.3808,16.61477 -0.67399,2.07179 -2.32667,6.24189 -3.67263,9.26689 -1.34596,3.025 -3.04842,7.75 -3.78326,10.5 -0.73484,2.75 -2.04179,6.35 -2.90434,8 -0.86255,1.65 -1.57104,3.55939 -1.57443,4.2431 -0.0105,2.12246 -7.011,19.33255 -11.49395,28.2569 -2.54853,5.07344 -4.56748,10.71719 -5.00825,14 -1.49259,11.11669 -5.30039,14.49517 -13.01605,11.54853 -5.05964,-1.93229 -7.9819,-5.41673 -7.03772,-8.3916 0.79798,-2.51421 3.96747,-3.31653 6.25333,-1.58296 2.65785,2.01567 3.29648,1.73778 3.29648,-1.43442 0,-1.57325 1.14806,-4.55222 2.55125,-6.61994 2.78235,-4.10002 5.89326,-10.57915 6.97149,-14.51961 0.6182,-2.25925 3.33711,-9.00869 7.14037,-17.72528 0.77399,-1.77391 3.01526,-8.29891 4.98058,-14.5 1.96532,-6.2011 5.09948,-14.55439 6.96481,-18.56288 1.86532,-4.00848 3.3915,-7.4641 3.3915,-7.67914 0,-0.21504 2.62821,-4.36037 5.84047,-9.21184 3.21225,-4.85147 6.3936,-10.62086 7.06967,-12.82086 0.67606,-2.2 1.6158,-4.9 2.0883,-6 0.4725,-1.1 1.61719,-6.01541 2.54375,-10.92313 0.92656,-4.9077 2.58635,-11.4327 3.68842,-14.49999 1.10207,-3.06728 1.93779,-6.8942 1.85717,-8.50428 -0.0806,-1.61008 0.71523,-5.66008 1.76856,-9 1.05332,-3.33992 2.47132,-9.222593 3.1511,-13.072593 0.67979,-3.85 1.81879,-9.025 2.53111,-11.5 0.71233,-2.475 1.58646,-6.23282 1.9425,-8.35072 0.63842,-3.79752 2.40598,-8.51959 5.20316,-13.90037 0.78659,-1.5131 1.87233,-8.2631 2.41276,-15 0.54044,-6.7369 1.4147,-14.16787 1.94282,-16.51326 0.52812,-2.34539 0.97062,-6.17039 0.98334,-8.5 0.0361,-6.61376 5.41574,-31.42325 8.18586,-37.75113 0.83896,-1.91649 2.78122,-6.63452 4.31613,-10.48452 2.93868,-7.37107 5.2322,-11.51107 12.28885,-22.1825 2.37268,-3.58809 4.75451,-7.48989 5.29294,-8.67065 0.53843,-1.18077 1.62801,-3.27185 2.42129,-4.64685 0.79327,-1.375 1.44895,-3.59791 1.45706,-4.9398 0.02,-3.31867 1.71708,-12.55272 4.51365,-24.5602 5.16375,-22.171267 5.49965,-31.455337 1.38102,-38.170267 -2.68523,-4.37794 -8.50707,-7.70424 -12.99224,-7.4231 -2.95893,0.18547 -4.46218,-0.50912 -8.31082,-3.8401 -3.94233,-3.41206 -5.39859,-4.06653 -9.04848,-4.06653 -4.17747,0 -4.43791,0.18165 -6.5674,4.58059 -1.21958,2.51932 -2.79082,4.80061 -3.49163,5.06954 -0.70081,0.26893 -4.23058,3.99225 -7.84392,8.27406 -6.59856,7.81927 -12.32915,16.91852 -14.40461,22.87217 -0.61319,1.759 -2.17406,4.66192 -3.46859,6.45092 -1.29454,1.788987 -2.831,4.377717 -3.41436,5.752717 -1.54663,3.64545 -4.19642,9.13108 -5.7965,12 -1.70217,3.05197 -6.20756,18.82746 -7.13986,25 -0.37382,2.475 -1.21972,5.625 -1.87978,7 -0.66005,1.375 -1.79566,5.76783 -2.52356,9.76185 -1.09885,6.02943 -1.09835,7.68247 0.003,9.74028 1.13651,2.12359 1.09545,2.73366 -0.28677,4.26099 -1.0678,1.17991 -1.31155,2.27062 -0.72098,3.22618 1.11141,1.79831 -0.56224,4.0107 -3.03405,4.0107 -3.79951,0 -4.82695,1.041 -4.29044,4.34709 0.67554,4.16288 -1.04752,13.3145001 -3.53999,18.8018301 -1.087,2.39309 -2.91832,8.4010799 -4.06961,13.3510799 -1.15129,4.95 -2.39321,10.125 -2.75984,11.5 -0.36663,1.375 -0.76134,3.175 -0.87713,4 -1.23471,8.79664 -7.54351,28.30901 -12.18306,37.68071 -2.77204,5.59939 -5.36609,12.12439 -5.76457,14.5 -0.43026,2.56504 -1.90832,5.67173 -3.63925,7.64924 -3.153,3.60211 -15.83549,28.902253 -15.83549,31.589953 0,0.9022 -1.07904,4.21431 -2.39786,7.36023 -1.31883,3.14593 -3.39072,9.99486 -4.6042,15.21986 -1.21348,5.225 -2.60737,10.4 -3.09753,11.5 -0.96791,2.17216 -4.79805,13.31824 -7.97709,23.21412 -1.09796,3.41777 -3.50357,9.26777 -5.34581,13 -1.84224,3.73224 -4.57435,9.71088 -6.07135,13.28588 -5.17655,12.3622 -8.49768,18.8878 -10.9709,21.55645 -1.3658,1.47372 -3.28247,4.40929 -4.25926,6.52348 -2.06104,4.46094 -2.65816,4.78164 -10.41208,5.59208 -5.56665,0.58183 -5.92148,0.47788 -8.76708,-2.56834 -2.35979,-2.52616 -3.48581,-3.04415 -5.512,-2.53561 -2.3535,0.59069 -6.84152,-0.747 -17.33484,-5.1668 -1.7875,-0.7529 -3.25,-2.04081 -3.25,-2.86203 0,-1.83502 4.52806,-4.94894 5.93342,-4.08038 1.68643,1.04227 14.46689,5.54115 15.74135,5.54115 3.15917,0 4.74439,-24.83738 2.2518,-35.28148 -0.86928,-3.64229 -0.8506,-6.32136 0.0784,-11.24484 0.67075,-3.55485 0.92394,-8.03909 0.56264,-9.96498 -0.3613,-1.92588 -0.14864,-6.30451 0.47257,-9.73028 1.31075,-7.22836 1.85568,-12.36672 2.41569,-22.77842 0.22187,-4.12499 1.11482,-11.09999 1.98435,-15.49999 3.55548,-17.99163 4.49679,-24.53574 5.10632,-35.500003 0.35162,-6.325 1.03314,-17.8 1.51448,-25.5 1.47376,-23.57566 1.76276,-30.14506 2.39757,-54.4999999 0.60108,-23.0609601 0.56982,-23.5880201 -1.67303,-28.2111501 -1.56077,-3.21715 -2.9198,-4.73043 -4.28556,-4.77196 -2.80283,-0.0852 -9.72182,-3.3638 -11.4141,-5.4086 -1.22803,-1.48385 -1.19599,-1.92677 0.24351,-3.36627 1.45501,-1.45501 2.35618,-1.51109 7.37307,-0.45878 6.66402,1.39779 8.24464,0.59088 6.47039,-3.30317 -1.7849,-3.91744 -1.43907,-5.19162 1.70675,-6.28826 2.20331,-0.76808 3.00362,-1.78922 3.40757,-4.34783 0.29037,-1.83919 1.02409,-5.26663 1.63048,-7.61652 1.79227,-6.94542 4.0892,-56.363947 3.13031,-67.348767 -0.87838,-10.06252 -1.76959,-12.74075 -5.61655,-16.87869 -1.27831,-1.375 -3.23197,-4.55292 -4.34147,-7.06204 -1.65153,-3.73493 -2.91824,-4.98403 -6.98679,-6.88964 -4.73478,-2.21765 -5.26168,-2.26279 -11.15384,-0.95562 -8.02398,1.78011 -10.35428,3.28315 -17.22714,11.11144 -7.26182,8.27132 -14.39433,24.4413 -16.23052,36.79586 -0.36785,2.475 -1.25659,6.749997 -1.975,9.499997 -2.35478,9.01393 -4.56668,23.76914 -5.54654,37 -0.86721,11.70978 -2.09388,22.06045 -4.91821,41.5 -0.94996,6.53841 -4.71892,22.7815001 -7.65716,33 -3.13574,10.90538 -3.41842,13.64529 -1.75239,16.98493 1.4886,2.98398 1.44122,3.28694 -1.08382,6.93058 -2.28685,3.29993 -2.76814,5.37666 -3.59382,15.50688 -0.52434,6.43317 -0.99729,16.05738 -1.05098,21.38714 -0.0537,5.32976 -0.42162,10.14047 -0.8176,10.69047 -2.1756,3.0218 -3.51983,11.7963 -5.0555,33.000003 -0.55767,7.7 -1.40839,16.25 -1.89049,18.99999 -1.65607,9.44665 -4.23768,21.00574 -5.69518,25.5 -0.80264,2.475 -3.03337,9.34423 -4.95717,15.26494 -1.92379,5.92072 -3.49781,12.31656 -3.49781,14.21298 0,1.89642 -0.96059,5.8272 -2.13464,8.73506 -3.11683,7.71967 -6.14305,22.51375 -8.85462,43.28702 -0.71793,5.5 -1.91098,11.73542 -2.65124,13.85648 -0.74025,2.12106 -1.12825,4.20868 -0.8622,4.63915 0.26604,0.43046 0.0835,2.74505 -0.40562,5.14352 -1.59312,7.81196 -3.91014,20.32529 -4.04784,21.86085 -0.71179,7.9376 -2.0948,22.57672 -2.55078,27 -0.31184,3.025 -1.36907,7.3 -2.34941,9.5 -0.98034,2.2 -2.28236,5.8 -2.89339,8 -0.61103,2.20001 -1.85413,6.70001 -2.76244,10.00001 -0.90831,3.3 -2.28669,8.025 -3.06306,10.5 -0.77637,2.475 -2.32389,7.61515 -3.43893,11.42255 -1.11504,3.80741 -2.42906,7.40741 -2.92004,8 -0.88046,1.06271 -4.3968,13.28939 -6.06176,21.07745 -0.47033,2.2 -1.72071,6.025 -2.77862,8.5 -1.05791,2.475 -2.48954,7.65 -3.18139,11.5 -0.69186,3.85 -1.84426,8.575 -2.56091,10.5 -0.71664,1.925 -1.8249,7.55 -2.4628,12.5 -1.47453,11.44214 -6.36346,30.71696 -8.97465,35.38289 -1.46133,2.61126 4.22936,12.00656 12.48769,20.61711 4.22002,4.4 8.96445,9.3611 10.54318,11.02467 1.57872,1.66356 3.38113,4.48973 4.00535,6.28038 0.6406,1.83761 2.36012,3.88928 3.9477,4.71025 8.07363,4.17503 11.62427,19.17361 4.33262,18.30184 -2.0816,-0.24887 -3.25611,-1.50104 -5.45637,-5.81714 -2.83683,-5.56482 -4.20109,-6.97385 -13.65583,-14.10392 -2.8875,-2.17754 -5.25,-4.6341 -5.25,-5.45901 0,-0.82491 -0.68693,-1.76344 -1.52651,-2.08562 -0.83958,-0.32217 -2.63243,-2.4729 -3.98413,-4.77939 -1.35169,-2.30649 -3.58976,-5.2572 -4.97349,-6.55715 -1.38373,-1.29995 -2.51802,-2.8476 -2.52065,-3.43922 -0.003,-0.59163 -1.67351,-2.87569 -3.71308,-5.07569 -2.03957,-2.2 -4.98311,-6.7 -6.54119,-10 -1.55808,-3.3 -3.14969,-6.48293 -3.53691,-7.07317 -0.38722,-0.59024 -2.17763,-3.28332 -3.97867,-5.98462 -1.80105,-2.7013 -3.74818,-6.67008 -4.32696,-8.8195 -0.57878,-2.14942 -3.27641,-8.23134 -5.99472,-13.51538 -4.68194,-9.10103 -5.89491,-12.89531 -7.86661,-24.60733 -0.46296,-2.75 -1.49582,-7.025 -2.29524,-9.5 -0.79942,-2.475 -2.02715,-6.525 -2.7283,-9 -0.701137,-2.475 -2.133887,-6.44562 -3.183887,-8.8236 -1.05,-2.37799 -2.18917,-5.75299 -2.53148,-7.5 -0.64718,-3.30288 -2.33595,-7.14237 -7.47783,-17.00116 -1.67086,-3.20361 -4.29941,-8.32568 -5.84123,-11.38236 -1.54183,-3.05668 -3.75951,-6.51054 -4.92818,-7.67524 -1.16868,-1.1647 -3.42815,-4.1457 -5.02104,-6.62444 -2.70329,-4.20663 -8.20928,-10.10091 -21.18267,-22.67645 -2.94097,-2.85079 -8.88044,-8.77178 -13.19882,-13.15777 -6.03421,-6.12869 -8.69609,-8.13105 -11.5,-8.65072 -2.00662,-0.37191 -5.10371,-1.57067 -6.88243,-2.66392 -2.46685,-1.5162 -5.61839,-2.10267 -13.2853501,-2.47229 -10.3302,-0.49801 -11.90998,-0.11548 -22.9591399,5.55944 -2.73441,1.40441 -3.06335,7.07186 -0.87458,15.0685 1.12906,4.125 2.86766,8.4 3.86355,9.5 0.9959,1.1 2.30418,3.86008 2.90731,6.13351 0.60313,2.27343 1.72421,4.65439 2.4912999,5.29102 0.76709,0.63663 1.69572,2.37655 2.06362,3.8665 0.3679,1.48994 2.06089,4.88845 3.7622,7.55224 6.08671,9.53012 12.77275,25.99237 12.75728,31.41072 -0.004,1.51031 1.7573801,7.69602 3.9148701,13.74602 2.1575,6.05 4.4853,13.7 5.17291,17 0.6876,3.3 1.65212,6.80689 2.14337,7.79309 0.49125,0.9862 1.49498,4.8112 2.23051,8.5 0.73553,3.6888 2.01057,9.40691 2.83342,12.70691 0.82284,3.3 2.06728,9.375 2.76542,13.5 0.69813,4.125 1.59181,7.95 1.98595,8.5 0.39414,0.55 1.04991,2.125 1.45728,3.5 0.40737,1.375 1.28694,3.175 1.95459,4 0.66766,0.825 2.2453,3.975 3.50588,7 1.26057,3.025 3.16368,6.73322 4.22912,8.2405 1.06545,1.50727 2.20716,4.43227 2.53713,6.5 0.32997,2.06772 2.66487,7.81762 5.18867,12.77755 6.59901,12.96881 10.08872,20.99732 10.08872,23.21035 0,1.06079 1.29704,3.91836 2.88231,6.35016 1.68708,2.58796 3.30693,6.91014 3.90626,10.42294 0.56317,3.30083 3.31613,11.78772 6.11769,18.85976 2.80156,7.07204 5.09374,13.39551 5.09374,14.05216 0,0.65664 1.06161,3.41975 2.35912,6.14024 1.29752,2.72049 2.91302,6.97134 3.59001,9.44634 0.67699,2.475 2.54038,6.94241 4.14088,9.92758 1.60049,2.98517 2.90999,5.93845 2.90999,6.56285 0,3.49696 9.975557,19.75462 14.347727,23.3832 0.90875,0.75419 1.65227,1.75703 1.65227,2.22853 0,1.03217 5.34401,8.03178 13.5,17.68235 3.3,3.90469 7.26924,8.81309 8.82054,10.90749 1.5513,2.0944 5.0476,6.733 7.76956,10.308 2.72195,3.575 6.01137,8.075 7.30981,10 1.29843,1.925 3.53963,4.5909 4.98044,5.9243 1.44081,1.3334 2.61965,2.9366 2.61965,3.5627 0,0.6261 2.02679,3.3601 4.50398,6.0757 2.47719,2.7155 7.91059,9.8873 12.07421,15.9373 11.41555,16.5875 11.42881,16.6042 20.10676,25.3055 4.45065,4.4626 10.89596,11.2687 14.32291,15.1246 6.80501,7.6569 15.06578,14.4254 18.99214,15.5613 3.83025,1.1082 10.64202,8.2566 13.56954,14.2403 1.44601,2.9555 3.75872,9.7375 5.13934,15.071 2.41895,9.3447 2.95708,11.9987 5.31175,26.1973 0.59287,3.575 1.97631,11.675 3.07432,18 2.12595,12.2465 2.68245,30.6226 0.97895,32.3261 -0.66581,0.6658 -0.68604,1.4363 -0.0576,2.1936 0.5328,0.642 1.35358,3.9813 1.82394,7.4206 0.47127,3.446 1.48475,6.652 2.25747,7.1413 1.35224,0.8561 12.69438,1.3056 29.40226,1.1652 4.4,-0.037 17.675,-0.1333 29.5,-0.2141 11.825,-0.081 29.15,-0.6092 38.5,-1.1741 9.35,-0.565 25.325,-1.1909 35.5,-1.3909 34.0518,-0.6693 59.09118,-1.4533 61.30557,-1.9196 1.20694,-0.2541 12.09443,-0.7367 24.19443,-1.0725 12.1,-0.3357 26.57513,-0.9481 32.16695,-1.3607 5.59182,-0.4127 13.46682,-0.3523 17.5,0.1342 4.03318,0.4865 8.00805,0.9053 8.83305,0.9306 10.54348,0.3244 32.20822,2.2233 38.34901,3.3613 4.31695,0.8001 8.1855,1.2467 8.59676,0.9925 0.9059,-0.5599 24.39287,1.9397 25.67566,2.7325 0.81782,0.5055 12.53541,2.566 24.37857,4.287 2.475,0.3597 5.85,1.2516 7.5,1.9822 1.65,0.7305 5.025,1.5387 7.5,1.796 6.40651,0.6661 12.79494,2.4903 18,5.1399 6.81741,3.4704 7.34727,3.3022 6.73404,-2.1384 z M 337.84275,606.05276 c -3.36618,-2.57027 -5.46602,-5.31205 -7.601,-9.92468 -1.62245,-3.50532 -3.83596,-6.84751 -4.91891,-7.42709 -1.08295,-0.57957 -2.60218,-2.56918 -3.37606,-4.42134 -0.77388,-1.85217 -2.28237,-3.64539 -3.35219,-3.98494 -1.06982,-0.33954 -2.75452,-2.12032 -3.74379,-3.95727 -0.98927,-1.83696 -2.82414,-3.96501 -4.07749,-4.72901 -3.0448,-1.85599 -13.55818,-10.33271 -19.59654,-15.80028 -3.20202,-2.89934 -6.49077,-4.8223 -9.59567,-5.61066 -2.59818,-0.65971 -4.72396,-1.69279 -4.72396,-2.29575 0,-1.66113 -3.70928,-4.11472 -6.27475,-4.15059 -1.48958,-0.0208 -2.60283,-0.89472 -3.22525,-2.5318 -0.60158,-1.58227 -1.72921,-2.5 -3.0718,-2.5 -1.16671,0 -4.16621,-1.8 -6.66554,-4 -2.49933,-2.2 -5.32578,-4 -6.28101,-4 -0.95522,0 -2.29696,-0.675 -2.98165,-1.5 -0.68469,-0.825 -2.20229,-1.50023 -3.37244,-1.5005 -1.17016,-2.8e-4 -4.39084,-0.86075 -7.15707,-1.91215 -2.76623,-1.0514 -9.38882,-2.33965 -14.71687,-2.86278 -10.75791,-1.05625 -14.75362,-2.85473 -14.75362,-6.64063 0,-4.01983 4.61357,-4.57713 17,-2.05355 4.125,0.84041 10.425,1.94413 14,2.4527 11.95943,1.70131 20.73665,5.61993 38.5,17.18847 5.5,3.58193 10.76375,6.92576 11.69722,7.43073 2.62252,1.4187 32.70906,30.21148 38.03135,36.39597 2.60411,3.02596 7.668,9.22141 11.25308,13.76768 5.77269,7.32036 6.51835,8.76665 6.51835,12.64301 0,5.86063 -1.76675,6.3131 -7.51439,1.92446 z M 55.915893,476.78427 c -1.50289,-1.66067 -1.60677,-2.30213 -0.57432,-3.54616 2.42116,-2.91732 15.01557,-1.36604 15.01557,1.8495 0,1.74999 -1.95656,2.53818 -7.96,3.20667 -3.80811,0.42403 -4.97753,0.15158 -6.48125,-1.51001 z m 30.44125,-4.58967 c 0,-2.04786 4.29764,-3.56572 7.99957,-2.82534 3.21577,0.64316 4.01329,2.74744 1.41864,3.7431 -0.86998,0.33385 -3.34498,0.60699 -5.5,0.60699 -2.84445,0 -3.91821,-0.41785 -3.91821,-1.52475 z M 318.12851,405.90349 c -7.08213,-2.90008 -9.00274,-4.15058 -10.18175,-6.62923 -1.06236,-2.23342 -2.74879,-3.5166 -6.27137,-4.7718 -2.65004,-0.94429 -7.56311,-3.94749 -10.91793,-6.67378 -3.35483,-2.72628 -7.69897,-5.6251 -9.65364,-6.44181 -3.73534,-1.56073 -5.70458,-5.10962 -3.85923,-6.95497 1.57054,-1.57054 10.9727,1.60016 15.56353,5.24849 2.0315,1.61444 5.11399,3.52115 6.84997,4.23715 10.30789,4.25144 15.13359,7.4517 18.11732,12.01487 2.95049,4.51235 3.26701,4.704 7.43227,4.5 5.47746,-0.26825 7.83743,2.27404 5.83653,6.28744 -0.68052,1.36498 -1.901,2.54392 -2.71219,2.61987 -0.81118,0.0759 -5.40277,-1.47036 -10.20351,-3.43623 z m 236.33658,-11.93414 c -1.06298,-2.0625 -3.54713,-5.30078 -5.52032,-7.19617 -1.9732,-1.89539 -3.58763,-4.21049 -3.58763,-5.14468 0,-0.93418 -3.375,-5.09548 -7.5,-9.24733 -4.125,-4.15186 -7.5,-7.99393 -7.5,-8.53794 0,-1.71077 3.74768,-2.26891 7.83847,-1.16738 2.46596,0.66402 4.86804,2.27122 6.42933,4.30179 1.3709,1.78294 3.68295,4.51478 5.13788,6.07075 3.86774,4.13634 8.59432,14.08161 8.59432,18.08343 0,1.90822 0.45,3.74761 1,4.08753 1.68434,1.04098 1.11259,2.5 -0.97968,2.5 -1.27737,0 -2.66531,-1.33034 -3.91237,-3.75 z M 260.08927,373.1833 c -2.05267,-1.39483 -3.73213,-3.18626 -3.73213,-3.98095 0,-3.65503 9.90201,-2.45874 13.61581,1.64496 1.81158,2.00178 1.80983,2.08763 -0.0702,3.46236 -2.81318,2.05704 -5.59924,1.73727 -9.81348,-1.12637 z M 13.357143,367.71935 c 0,-6.33607 8.13247,-9.71031 8.82496,-3.66157 0.41786,3.64996 -2.2856,6.66157 -5.97995,6.66157 -2.49446,0 -2.84501,-0.36965 -2.84501,-3 z M 275.36771,354.23208 c -1.78519,-2.15102 -0.46221,-4.71587 2.23496,-4.33287 3.0507,0.43321 3.92383,5.82014 0.94334,5.82014 -1.06919,0 -2.49942,-0.66927 -3.1783,-1.48727 z m -256.406407,-8.3113 c -0.79595,-1.53921 -2.39085,-5.59978 -3.54422,-9.0235 -1.15336,-3.42371 -3.60918,-8.35185 -5.4573801,-10.95143 -1.84819,-2.59958 -3.67017,-5.73901 -4.04884,-6.97651 -0.37867,-1.2375 -1.09234,-2.25 -1.58592,-2.25 -1.33209,0 -2.64627,-2.96109 -3.43957004,-7.75 -0.56444,-3.40735 -0.40973,-4.25 0.78028004,-4.25 1.86757,0 6.3603,5.25099 9.9375901,11.61482 3.21001,5.71043 4.52846,7.90704 6.94007,11.56256 2.99997,4.54733 6.30734,15.46557 5.92898,19.57263 -0.21807,2.36719 -4.04167,1.29277 -5.51099,-1.54857 z m 231.002317,0.1599 c -5.2163,-2.71345 -14.15377,-5.36133 -18.09625,-5.36133 -1.31571,0 -2.66275,-0.43777 -2.99344,-0.97283 -0.33068,-0.53505 -2.49473,-1.48239 -4.80901,-2.10519 -8.4531,-2.27485 -15.30794,-7.75785 -11.45778,-9.16479 1.76613,-0.64539 10.50172,1.53356 22.75,5.67461 13.48012,4.55754 17.74735,6.38223 21.75,9.30048 7.08829,5.16792 1.61179,7.18345 -7.14352,2.62905 z M 458.71374,299.7023 c -5.79244,-4.78658 -6.92043,-6.59866 -5.31315,-8.53532 1.78228,-2.14751 2.70409,-1.84524 8.06777,2.64548 3.24814,2.71949 4.88878,4.86495 4.88878,6.39301 0,3.82967 -2.60781,3.658 -7.6434,-0.50317 z m 126.74305,-34.62572 c -1.28995,-0.90351 -4.65258,-2.51426 -7.47251,-3.57943 -7.87517,-2.9747 -11.98473,-7.65914 -8.04535,-9.17082 5.22085,-2.00343 15.71415,1.92205 21.42481,8.01488 2.25956,2.41077 3.83088,4.83208 3.49183,5.38068 -0.96878,1.56752 -6.81234,1.16631 -9.39878,-0.64531 z M 334.28022,242.79626 c -3.14913,-3.14913 -3.6547,-5.2249 -1.67308,-6.86934 3.00086,-2.49026 12.27907,5.50931 10.23185,8.82179 -1.20629,1.95181 -5.67361,0.93272 -8.55877,-1.95245 z m 118.27692,-87.27692 c -0.66,-0.66 -1.2,-2.03989 -1.2,-3.06642 0,-1.44614 0.61925,-1.79517 2.75,-1.55 2.15997,0.24853 2.81789,0.90645 3.06642,3.06642 0.24517,2.13075 -0.10386,2.75 -1.55,2.75 -1.02653,0 -2.40642,-0.54 -3.06642,-1.2 z m 21.8,-88.299993 c 0,-1.02996 0.6554,-1.52043 1.75,-1.30963 2.10784,0.40593 1.97493,2.18068 -0.19718,2.63295 -0.90598,0.18865 -1.55282,-0.36259 -1.55282,-1.32332 z M 243.77434,883.46935 c 0.62112,-3.0694 0.40057,-5.75 -0.47308,-5.75 -0.3974,0 -1.72957,0.8154 -2.96037,1.8121 -1.64002,1.328 -2.05231,2.3965 -1.5434,4 0.92901,2.927 4.38069,2.8839 4.97685,-0.062 z m -14.4172,-81.6013 c 0,-1.0183 -1.34688,-3.6058 -2.99308,-5.75 -1.64619,-2.1443 -4.06114,-5.4821 -5.36656,-7.4174 -1.30541,-1.9354 -5.24603,-6.164 -8.75692,-9.397 -3.51089,-3.2331 -7.05844,-7.0962 -7.88344,-8.5848 -4.54292,-8.1969 -18.23386,-22.9834 -23.21675,-25.0745 -1.49421,-0.627 -2.98718,-1.9922 -3.31772,-3.0336 -0.69446,-2.1881 -4.46553,-4.6192 -4.46553,-2.8788 0,0.5956 1.125,2.1255 2.5,3.3998 1.375,1.2743 2.5,2.8471 2.5,3.495 0,0.6479 1.89648,3.7463 4.2144,6.8853 4.15787,5.6307 5.09246,6.7387 14.18059,16.811 2.53275,2.807 4.60501,5.4396 4.60501,5.8502 0,0.4106 2.5875,3.4758 5.75,6.8116 20.38518,21.5023 22.25,23.085 22.25,18.8832 z m 945.84046,-40.8911 c 3.1127,-2.6083 8.5845,-7.2515 12.1595,-10.3181 3.575,-3.0666 8.3872,-6.2863 10.6937,-7.155 3.8838,-1.4627 11.6448,-6.656 21.6837,-14.5098 4.6364,-3.6272 18.6112,-10.7559 23.0093,-11.7373 1.5876,-0.3543 4.2876,-1.7101 6,-3.0129 1.7123,-1.3028 4.4633,-2.6815 6.1133,-3.0638 1.65,-0.3822 5.475,-1.7255 8.5,-2.9851 5.1511,-2.1448 7.7601,-3.0761 19.75,-7.0499 2.6125,-0.8658 5.5314,-1.9908 6.4864,-2.5 0.9551,-0.5091 2.8004,-0.9257 4.1008,-0.9257 2.7991,0 7.5886,-1.4927 13.2904,-4.142 2.7841,-1.2936 7.3409,-2.0969 14,-2.4679 10.5978,-0.5904 23.8905,-2.7756 25.7387,-4.2311 1.6828,-1.3254 9.6821,-2.1102 22.8678,-2.2437 10.8979,-0.1103 18.1488,-0.9648 19.4797,-2.2958 1.235,-1.235 -2.0724,-6.6714 -4.4168,-7.2598 -2.0035,-0.5028 -2.339,-1.0563 -1.8416,-3.0382 0.3947,-1.5725 -0.059,-3.371 -1.293,-5.1224 -3.3582,-4.7675 -6.1624,-11.044 -6.1624,-13.7932 0,-1.4706 -0.523,-4.41939 -1.1622,-6.55281 -1.053,-3.51466 -0.952,-4.10263 1.0752,-6.26053 2.3555,-2.5073 2.139,-2.94682 -1.9288,-3.91456 -1.464,-0.34832 -3.0165,-1.76474 -3.7137,-3.38826 -0.6588,-1.53436 -1.6152,-3.46474 -2.1252,-4.28974 -0.5101,-0.825 -1.9212,-4.74452 -3.1357,-8.71004 -1.2146,-3.96553 -2.9001,-7.78415 -3.7456,-8.48584 -0.8455,-0.70169 -2.3145,-3.08217 -3.2644,-5.28996 -0.9499,-2.20779 -3.5885,-7.88924 -5.8634,-12.62546 -2.2749,-4.73621 -4.1505,-9.23621 -4.168,-10 -0.017,-0.76378 -0.6925,-2.26221 -1.5,-3.32983 -0.8075,-1.06762 -1.4682,-3.11477 -1.4682,-4.54923 0,-1.43445 -2.2795,-7.76094 -5.0655,-14.05887 -5.4306,-12.27583 -8.3972,-19.9258 -9.2985,-23.97759 -0.3091,-1.38975 -2.0894,-4.31475 -3.9561,-6.5 -1.8668,-2.18525 -4.3644,-5.87951 -5.5503,-8.20947 -1.186,-2.32996 -3.5003,-6.35556 -5.1429,-8.94578 -2.199,-3.46746 -2.9867,-5.92137 -2.9867,-9.30463 0,-3.79174 -0.8742,-5.97951 -5,-12.5133 -2.75,-4.35499 -5,-8.51491 -5,-9.24427 0,-1.49979 -2.4962,-5.76125 -5.1368,-8.76931 -0.9722,-1.10747 -3.101,-6.09374 -4.7306,-11.08059 -1.6296,-4.98685 -4.0136,-10.70007 -5.2978,-12.69604 -5.4421,-8.45872 -17.6462,-29.1895 -21.5271,-36.56749 -1.8393,-3.49673 -5.361,-8.92474 -7.826,-12.06223 -2.4649,-3.1375 -4.4817,-6.46403 -4.4817,-7.39231 0,-0.92827 -0.3378,-1.68776 -0.7508,-1.68776 -0.4129,0 -2.5443,-3.64512 -4.7364,-8.10027 -2.1921,-4.45515 -4.8917,-8.96999 -5.9992,-10.03299 -4.6025,-4.41762 -13.383,-10.60741 -18.7335,-13.20619 -8.5461,-4.15092 -17.1709,-10.90653 -20.8543,-16.3347 -3.0792,-4.53785 -5.2157,-7.37498 -10.0351,-13.32586 -1.1135,-1.375 -4.357,-6.0961 -7.2077,-10.49133 -4.5949,-7.08464 -5.9618,-8.41544 -12.0468,-11.72929 -3.7751,-2.05587 -10.8371,-5.09124 -15.6935,-6.74526 -4.8563,-1.65402 -10.5426,-3.87703 -12.6362,-4.94003 -2.0936,-1.063 -6.5065,-2.46155 -9.8065,-3.1079 -5.6525,-1.1071 -15.0885,-5.96377 -16.7562,-8.62435 -0.4159,-0.6635 -2.2951,-2.15746 -4.1759,-3.3199 -1.8809,-1.16245 -4.6468,-4.23493 -6.1465,-6.82774 -3.3531,-5.79721 -9.9376,-13.2387 -13.3661,-15.1057 -1.4054,-0.76533 -2.9169,-2.006 -3.3589,-2.75704 -0.442,-0.75104 -2.5795,-2.27151 -4.75,-3.37882 -2.1705,-1.10731 -3.9464,-2.46076 -3.9464,-3.00766 0,-1.94102 -6.4488,-4.87522 -11.9341,-5.43003 -3.0612,-0.30963 -7.5909,-1.00079 -10.0659,-1.53592 -2.475,-0.53512 -14.4,-1.88557 -26.5,-3.001 -12.1,-1.11543 -24.7,-2.28099 -28,-2.59014 -3.3,-0.30914 -8.81746,-1.51238 -12.26106,-2.67385 -4.4541,-1.50226 -6.5705,-1.80239 -7.3331,-1.03988 -1.1774,1.17746 -0.3427,2.18735 4.2297,5.11713 6.6819,4.28152 18.69766,12.34783 21.86446,14.67794 8.6338,6.3526 13.9893,9.70203 20.5,12.82106 9.0059,4.31438 20.2857,11.64058 23.5776,15.31367 7.5633,8.43908 22.3583,35.41673 21.7291,39.62171 -0.5477,3.66059 -3.3673,4.50214 -7.5533,2.25433 -2.9443,-1.58106 -3.8452,-2.74614 -4.301,-5.56203 -0.317,-1.95911 -1.561,-4.54661 -2.7644,-5.75 -1.2667,-1.26666 -2.188,-3.4364 -2.188,-5.15279 0,-1.96455 -0.691,-3.33461 -2.0481,-4.0609 -1.4005,-0.74954 -1.857,-1.69796 -1.4438,-2.99974 0.3518,-1.10858 -0.1947,-3.06702 -1.3086,-4.6891 -1.052,-1.53199 -2.634,-3.9791 -3.5154,-5.43802 -1.6426,-2.71883 -5.7463,-5.47351 -16.04,-10.76698 -3.2208,-1.65626 -6.3708,-3.43815 -7,-3.95977 -2.4875,-2.06198 -13.4625,-7.85828 -16.1624,-8.53592 -1.5745,-0.39517 -4.4645,-1.9515 -6.4222,-3.45851 -7.83256,-6.02935 -28.11536,-18.12465 -30.39896,-18.12788 -0.6383,-9.1e-4 -2.7491,-1.68841 -4.6908,-3.75 -1.9416,-2.0616 -7.1166,-6.43922 -11.5,-9.72805 -4.3833,-3.28883 -14.4947,-12.52032 -22.4697,-20.51443 -7.975,-7.9941 -16.426,-16.03928 -18.7801,-17.87818 -2.3541,-1.83889 -4.9826,-4.70201 -5.8413,-6.36249 -0.8587,-1.66048 -3.2503,-4.64943 -5.3147,-6.64213 -2.0644,-1.99269 -4.1609,-4.32276 -4.6587,-5.17792 -1.0958,-1.88225 -7.6003,-5.94432 -9.5232,-5.9473 -1.7544,-0.003 -12.7361,-5.68767 -15.382,-7.9629 -2.226,-1.91414 -8.7038,-5.68963 -18.5,-10.78247 -3.575,-1.85856 -7.4,-4.19987 -8.5,-5.2029 -2.4586,-2.24188 -12.1008,-7.58283 -15.5,-8.58569 -1.375,-0.40566 -3.7591,-1.79014 -5.2981,-3.07662 -1.5389,-1.28649 -4.2389,-3.02716 -6,-3.86816 -1.761,-0.84099 -7.1208,-5.01434 -11.9105,-9.27409 -17.0142,-15.13164 -17.8316,-15.48149 -33.3823,-14.28894 -6,0.46012 -12.1759,1.33324 -13.7242,1.94026 -4.926,1.93123 -6.8603,1.46327 -6.5013,-1.57283 0.2359,-1.99574 1.4609,-3.29779 4.8164,-5.1193 2.475,-1.34355 5.5905,-3.039923 6.9232,-3.769713 1.6715,-0.91525 4.3861,-1.14361 8.75,-0.73609 4.0352,0.37681 6.3268,0.21985 6.3268,-0.43334 0,-2.46007 -16.9583,-14.81241 -33,-24.03703 -6.875,-3.95341 -13.0663,-8.09702 -13.7585,-9.20802 -0.8212,-1.31825 -2.3303,-2.02002 -4.3436,-2.02002 -2.1464,0 -3.2305,-0.55573 -3.5628,-1.82648 -0.2627,-1.00457 -1.7458,-2.57566 -3.2959,-3.49131 -1.5501,-0.91565 -5.7157,-4.25623 -9.257,-7.42352 -15.0472,-13.45822 -17.3466,-15.25869 -19.4869,-15.25869 -1.479,0 -2.7698,-1.01686 -3.7865,-2.98307 -1.9184,-3.7097 -6.1208,-5.94678 -12.6165,-6.71609 -7.07054,-0.8374 -13.36925,2.25264 -17.37951,8.5261 -4.55162,7.12035 -5.13237,9.24685 -2.95926,10.83586 1.57238,1.14975 1.60111,1.3372 0.20499,1.3372 -3.5446,0 -3.04667,6.77211 1.32347,18 1.17739,3.025 2.71245,7.525 3.41123,10 0.69879,2.475 2.18519,6.3 3.30312,8.5 1.11793,2.2 2.96132,6.09136 4.09642,8.64747 1.13509,2.5561 3.20474,6.00338 4.5992,7.66061 1.39447,1.657233 3.24104,4.702083 4.10354,6.766333 2.2523,5.39052 8.5645,12.57416 28.483,32.41531 11.0388,10.99586 20.8977,19.81236 26.5,23.69812 14.8914,10.32849 18.2125,13.3683 19.4605,17.81215 0.7961,2.83457 2.4837,5.09395 5.7922,7.75467 9.5806,7.70474 28.2299,26.81811 35.8767,36.76933 2.3144,3.0118 5.8493,7.01976 7.8553,8.90657 2.0061,1.88682 4.7451,5.08926 6.0867,7.11653 1.3416,2.02727 3.9968,4.52474 5.9004,5.54994 1.9037,1.02519 3.6868,2.54776 3.9624,3.38347 0.2757,0.83572 2.7628,3.31949 5.5269,5.51949 12.1426,9.66447 14.904,11.97981 22.4087,18.78866 13.5125,12.25964 29.0297,27.99457 32.2587,32.71134 1.6943,2.475 4.3029,5.625 5.797,7 1.494,1.375 5.2359,6.325 8.3154,11 8.998,13.66027 15.7307,21.95975 23.4883,28.9546 3.9925,3.59998 10.3434,9.58291 14.113,13.29541 10.2186,10.0639 14.5034,9.05886 12.8831,-3.02183 -0.4595,-3.42544 -0.2352,-4.31727 1.2269,-4.87831 2.1367,-0.81993 6.0785,3.55366 7.2811,8.07868 0.6721,2.529 -0.1267,9.50718 -2.2404,19.57146 -0.2888,1.375 -1.2306,6.88263 -2.0928,12.23917 -0.8623,5.35654 -2.2178,11.88154 -3.0123,14.5 -0.7946,2.61846 -1.4495,5.66441 -1.4555,6.76879 -0.01,1.10437 -1.1358,4.12126 -2.5108,6.70419 -1.375,2.58293 -2.5,5.18216 -2.5,5.77607 0,0.59391 -2.3597,4.54251 -5.2438,8.77465 -4.0568,5.95299 -5.3584,8.80685 -5.75,12.60746 -0.4931,4.78596 -0.6865,5.03612 -7.4992,9.70103 -3.8462,2.63362 -7.8962,5.01286 -9,5.2872 -1.1039,0.27434 -4.7064,1.44476 -8.0056,2.60092 -7.7429,2.71339 -26.8287,4.35699 -33.8919,2.91864 -2.8102,-0.57227 -8.0345,-1.89243 -11.6095,-2.93368 -15.459,-4.50257 -25.2715,-7.16166 -36.5,-9.89118 -2.75,-0.6685 -6.35,-1.68061 -8,-2.24915 -1.65,-0.56853 -11.775,-2.13416 -22.5,-3.47917 -10.725,-1.34502 -21.975,-2.85619 -25,-3.35816 -3.025,-0.50198 -10.5047,-1.53756 -16.6215,-2.3013 -6.1168,-0.76373 -11.5278,-1.63975 -12.0245,-1.9467 -1.8269,-1.12911 -39.8917,-0.94845 -45.854,0.21763 -11.2192,2.1942 -24.98263,6.23788 -31,9.10776 -3.3,1.57387 -8.10902,3.74489 -10.68671,4.82448 -5.57118,2.33333 -7.53702,5.61587 -10.69285,17.85485 -2.47053,9.58122 -2.78709,18.47834 -0.71855,20.19507 0.77103,0.63991 1.66441,2.20944 1.98526,3.48784 0.62629,2.49533 10.96623,11.59359 13.17581,11.59359 0.73327,0 3.97197,2.196 7.19711,4.87999 5.24988,4.36899 6.53806,4.95469 12.30192,5.59328 3.54091,0.39231 7.74461,1.34631 9.34161,2.12001 1.597,0.7737 3.3028,1.40672 3.7905,1.40672 0.4878,0 2.1062,0.89613 3.5964,1.99141 1.4902,1.09527 4.7345,2.40576 7.2095,2.91219 2.475,0.50644 7.9716,1.62469 12.2146,2.485 4.2431,0.86031 12.3431,2.00808 18,2.55059 5.657,0.54252 11.7074,1.27628 13.4454,1.63059 l 3.1599,0.64421 -0.045,-14.0763 c -0.048,-15.0476 1.0506,-19.13769 5.1413,-19.13769 3.6529,0 4.055,5.93655 1.1511,16.99721 -1.7156,6.53462 -1.7718,7.67332 -0.5,10.13271 0.788,1.52392 1.4328,4.16116 1.4328,5.86055 0,4.30311 6.129,9.72601 17.4992,15.48314 7.2972,3.69487 9.6451,4.44754 12.2488,3.92679 2.6072,-0.52144 3.3332,-0.28743 3.8088,1.22768 1.2146,3.86983 2.1575,4.65329 9.4575,7.85827 4.1172,1.80757 11.1807,4.9126 15.6969,6.90007 4.5162,1.98747 9.0499,3.61358 10.075,3.61358 2.7817,0 21.981,6.72855 27.7138,9.71251 6.7467,3.51173 10.6212,6.28237 10.0585,7.19283 -0.5892,0.95329 5.239,8.09466 6.6061,8.09466 1.5441,0 6.4443,3.9385 11.6594,9.37103 2.5718,2.67907 7.601,6.82353 11.176,9.20991 3.575,2.38638 7.625,5.24691 9,6.35673 1.375,1.10982 2.9146,2.02786 3.4213,2.04009 0.5067,0.0122 1.6849,0.71337 2.6183,1.55807 2.3847,2.15813 12.5547,8.20075 15.23,9.04908 1.2267,0.389 3.8054,1.66881 5.7304,2.84402 1.925,1.1752 7.7176,4.14696 12.8725,6.60387 5.1549,2.457 13.0299,6.3273 17.5,8.6007 4.4701,2.2734 16.0025,8.1122 25.6275,12.9751 9.625,4.8629 19.78576,10.2606 22.57946,11.995 2.7937,1.7344 6.1687,3.4911 7.5,3.9038 1.3313,0.4127 6.6487,2.7174 11.8166,5.1215 5.1678,2.4041 9.879,4.3711 10.4693,4.3711 0.5903,0 6.9371,2.859 14.104,6.3534 7.1668,3.4944 16.6306,7.5085 21.0306,8.9203 7.4965,2.4054 8.6609,2.5118 18.5,1.6902 18.1875,-1.5186 17.9847,-1.5492 23.4454,3.5361 2.6578,2.475 5.2111,4.5 5.674,4.5 0.463,0 3.213,1.5141 6.1112,3.3648 2.8982,1.8506 7.9924,4.7369 11.3205,6.414 4.4968,2.266 8.408,5.5869 15.227,12.929 5.0467,5.4339 10.5786,11.9976 12.2931,14.586 1.7145,2.5884 3.7906,4.7062 4.6135,4.7062 0.823,0 4.0431,-2.1341 7.1558,-4.7424 z M 761.94314,546.21023 c -2.1247,-3.24262 -1.7108,-5.8981 0.9794,-6.2849 2.6824,-0.38568 5.6828,3.01163 5.265,5.96155 -0.4818,3.40179 -4.1044,3.58937 -6.2444,0.32335 z m 6.5846,-22.4675 c -1.3961,-3.15405 -0.9192,-5.02338 1.2814,-5.02338 1.5581,0 2.548,2.16866 2.548,5.58179 0,3.35478 -2.2419,3.02786 -3.8294,-0.55841 z m -59.2857,-9.20383 c -0.2249,-2.57675 0.3123,-5.35925 1.6062,-8.31955 3.2941,-7.53647 4.7442,-16.5 2.6694,-16.5 -0.8719,0 -3.1605,-4.37875 -3.1605,-6.04705 0,-1.24251 3.7193,-4.95295 4.9648,-4.95295 1.335,0 2.9616,3.2804 4.4262,8.92646 1.0853,4.18405 0.9762,5.8062 -0.886,13.1726 -2.7393,10.83612 -4.4587,14.32036 -7.2644,14.72049 -1.3129,0.18725 -2.2883,-0.22679 -2.3557,-1 z m 166.4383,-331.69149 c -0.6232,-2.3831 -4.9492,-2.93378 -8.4267,-1.07267 -2.6815,1.43511 -5.8965,0.24988 -5.8965,-2.17381 0,-2.32718 5.2614,-4.88159 10.0547,-4.88159 2.5046,0 3.3292,0.55671 4.1857,2.82596 l 1.0667,2.82596 5.5964,-2.30222 c 6.8363,-2.81226 16.8153,-3.246 17.7646,-0.77216 1.0628,2.76966 -2.0687,4.4395 -10.2257,5.45265 -4.3683,0.54258 -9.207,1.26539 -10.7525,1.60623 -2.3029,0.50787 -2.9106,0.23561 -3.3667,-1.50835 z M 701.19974,67.879307 c -6.9615,-5.31298 -14.0346,-11.00996 -15.7178,-12.65996 -3.69581,-3.62274 -8.62997,-7.85454 -12.42923,-10.65996 -1.84457,-1.36206 -2.70023,-2.80143 -2.5,-4.20543 0.49098,-3.44269 4.15197,-3.19193 8.14317,0.55776 7.72536,7.25786 9.57336,8.80763 10.50286,8.80763 0.5331,0 2.9243,1.64388 5.3138,3.65306 2.3895,2.00918 6.5946,5.1694 9.3446,7.02271 2.75,1.85332 7.475,5.1587 10.5,7.3453 6.2617,4.52623 6.7201,4.62046 10.8756,2.23555 3.4608,-1.98622 5.7521,-0.80961 4.725,2.42635 -0.9627,3.03324 -5.9006,5.32648 -11.2549,5.22699 -4.5332,-0.0842 -5.662,-0.71306 -17.5031,-9.75 z m 132.7753,558.351353 c 3.1435,-0.81877 6.4715,-2.05627 7.3957,-2.75 0.9241,-0.69372 3.9481,-2.95436 6.7199,-5.02364 5.1856,-3.87123 6.2293,-5.80521 6.2529,-11.58646 0.015,-3.63449 -4.1393,-8.44952 -8.9594,-10.38496 -12.358,-4.96211 -18.0201,-6.83901 -29.1848,-9.67432 -3.7724,-0.95802 -7.0802,-1.52062 -7.3506,-1.25023 -0.8557,0.85578 -0.5316,6.92279 0.5172,9.68151 0.5549,1.45938 1.175,7.33865 1.378,13.06505 0.2378,6.70623 0.8686,11.16375 1.7724,12.52496 1.3895,2.09274 10.7629,6.63168 14.042,6.79964 0.9357,0.0479 4.2732,-0.58277 7.4167,-1.40155 z M 551.35714,465.82634 c 0,-1.01369 -3.04579,-2.39454 -3.74326,-1.69706 -0.25136,0.25135 -0.16039,0.93695 0.20214,1.52354 0.79781,1.29088 3.54112,1.42531 3.54112,0.17352 z m 352.073,-4.78869 c 5.5881,-1.64351 9.8867,-3.62426 12.3458,-5.68883 l 3.7728,-3.1674 -1.235,-6.27735 c -1.035,-5.26047 -1.6904,-6.51283 -4.0462,-7.73103 -1.5461,-0.79953 -3.2912,-1.45369 -3.8781,-1.45369 -2.5523,0 -18.8305,-10.12031 -19.326,-12.01519 -0.8012,-3.06365 2.0048,-5.2952 5.7074,-4.53907 1.6975,0.34665 6.4613,0.89579 10.5863,1.22032 l 7.5,0.59005 5,-4.05841 c 2.75,-2.23213 6.8,-5.62701 9,-7.54417 l 4,-3.48575 -4.5,-1.95982 c -7.517,-3.2738 -13.7423,-9.61371 -17.6633,-17.98854 -3.8982,-8.32634 -3.9483,-12.59857 -0.141,-12.03434 1.4464,0.21435 3.1116,2.23094 5.2146,6.31492 4.5175,8.77274 5.6661,10.27887 10.0897,13.23054 6.4348,4.29367 8.5,6.46665 8.5,8.94377 0,1.7497 0.5572,2.3219 2.25,2.31038 1.2375,-0.008 2.7595,-0.34592 3.3823,-0.75 1.6386,-1.06316 4.4621,-9.91809 5.0172,-15.73469 0.4733,-4.95916 0.442,-5.02391 -3.8361,-7.92698 -7.7852,-5.28291 -25.5618,-21.44558 -27.5767,-25.07302 -1.0973,-1.97558 -1.168,-1.96947 -5.7892,0.5 -2.5731,1.375 -5.3457,3.50118 -6.1614,4.72485 -0.8158,1.22367 -3.5763,3.58072 -6.1346,5.23789 -10.335,6.69459 -11.836,8.0006 -15.9732,13.89853 -4.3746,6.23647 -6.817,7.48395 -9.1496,4.67332 -0.8068,-0.97219 -0.9807,-2.90753 -0.5165,-5.75 0.5862,-3.59002 1.8983,-5.47542 8.0937,-11.6305 4.0668,-4.04025 7.3941,-7.72243 7.3941,-8.18261 0,-0.46019 1.0125,-1.13098 2.25,-1.49065 4.3317,-1.25899 12.5497,-7.58307 13.811,-10.62813 1.4208,-3.43003 0.201,-6.34789 -5.3339,-12.75926 -1.6175,-1.87361 -4.9759,-6.59861 -7.4632,-10.5 -4.4717,-7.01409 -13.2565,-16.59345 -15.2171,-16.59345 -0.5572,0 -2.1364,-2.21673 -3.5093,-4.92607 -1.373,-2.70934 -3.3725,-5.20417 -4.4435,-5.54409 -1.0709,-0.33991 -4.6648,-3.52317 -7.9864,-7.07393 -3.3215,-3.55075 -6.5497,-6.45591 -7.1737,-6.45591 -0.6239,0 -3.1885,-2.025 -5.6989,-4.5 -2.5105,-2.475 -4.8645,-4.5 -5.2311,-4.5 -0.9362,0 -15.3687,14.72244 -15.992,16.31321 -0.6675,1.7038 -6.5869,9.0513 -10.9571,13.60048 -10.6144,11.04928 -18.4288,19.90911 -19.6602,22.29028 -0.7691,1.48719 -2.9253,3.42856 -4.7915,4.31415 -2.3184,1.10016 -4.1099,3.09442 -5.6559,6.29604 -1.2444,2.57722 -2.6416,5.46724 -3.1049,6.42228 -2.9662,6.11492 1.2067,53.98136 5.6024,64.26357 0.9405,2.2 2.1203,8.05 2.6219,13 2.3142,22.83881 2.3722,23.12928 4.8818,24.47238 1.0586,0.56656 5.4408,1.49355 9.7382,2.05998 4.2974,0.56643 9.8384,1.44989 12.3134,1.96323 2.475,0.51335 10.8,2.087 18.5,3.497 18.1595,3.32532 27.3616,5.46422 30.6627,7.12713 1.4644,0.73772 5.3547,1.52553 8.645,1.75068 l 5.9824,0.40936 -1.8168,-4.13988 c -1.337,-3.04661 -1.9933,-7.96864 -2.4854,-18.63823 -0.4024,-8.72539 -1.2299,-15.84172 -2.0782,-17.87212 -0.7754,-1.85558 -1.4097,-4.43472 -1.4097,-5.73142 0,-3.2189 -2.8877,-10.43341 -5.2154,-13.02991 -2.8012,-3.12464 -2.1831,-10.74033 0.9074,-11.18015 1.8624,-0.26504 2.8021,0.96646 6.25,8.19041 2.2319,4.6763 4.058,8.83767 4.058,9.2475 0,0.40982 1.0026,1.81233 2.2279,3.11668 1.872,1.99259 2.2503,3.60077 2.3679,10.06445 0.077,4.2311 0.6385,11.48288 1.2479,16.11506 0.6094,4.63219 0.8471,9.46175 0.5282,10.73235 -0.3189,1.27061 -0.1231,3.62059 0.4353,5.22218 0.7597,2.17933 0.66,3.59631 -0.3961,5.63195 -1.754,3.38085 -1.7659,3.24615 0.3389,3.83093 3.0306,0.84198 11.4367,-0.40768 20.323,-3.02126 z m -78.823,-67.98058 c -2.2392,-0.90355 -1.3542,-3.91199 3.1003,-10.5389 3.3916,-5.04556 14.7726,-4.6682 25.7678,0.85438 2.5698,1.29074 5.1144,2.3468 5.6547,2.3468 0.5403,0 1.5425,0.675 2.2272,1.5 0.9505,1.14528 0.9698,1.83152 0.081,2.90189 -2.3347,2.81317 -5.8861,2.73282 -12.3132,-0.27861 -6.0307,-2.82575 -6.266,-2.85753 -7.5531,-1.01995 -0.7307,1.04317 -2.3155,1.91262 -3.5218,1.93211 -1.2063,0.0195 -3.3183,0.67854 -4.6933,1.46456 -2.4912,1.42412 -6.3752,1.79597 -8.75,0.83772 z m 103.5472,44.40669 c 0.5731,-0.69058 1.3676,-2.60308 1.7655,-4.25 0.3979,-1.64693 1.784,-5.11695 3.0804,-7.71117 2.464,-4.93113 2.9884,-8.27489 1.4471,-9.22747 -1.6066,-0.99298 -3.7161,0.44697 -5.4763,3.73819 -0.9431,1.76332 -2.3972,4.45533 -3.2314,5.98224 -2.2022,4.03083 -2.8711,9.43011 -1.3895,11.21534 1.5247,1.83716 2.4389,1.89793 3.8042,0.25287 z m -780.5472,-47.40669 c -0.6875,-0.27741 -1.8125,-0.27741 -2.5,0 -0.6875,0.27741 -0.125,0.50439 1.25,0.50439 1.375,0 1.9375,-0.22698 1.25,-0.50439 z M 85.274013,295.21934 c 1.39227,-6.71968 1.97952,-16.554 0.95053,-15.91805 -0.36883,0.22795 -0.99582,3.21646 -1.39329,6.64112 -0.39747,3.42467 -1.33895,7.16721 -2.09216,8.31676 -0.75322,1.14955 -1.66004,4.31086 -2.01515,7.02513 l -0.64567,4.93504 1.97629,-2.5 c 1.08696,-1.375 2.53571,-5.2 3.21945,-8.5 z m 1084.020687,1.53341 c 1.9646,-1.05141 1.8176,-2.73383 -1.2258,-14.03341 -0.8147,-3.025 -1.7815,-7.75 -2.1482,-10.5 -0.6983,-5.23542 -3.0343,-14.58476 -4.4974,-18 -0.4712,-1.1 -1.4282,-4.7 -2.1266,-8 -0.6984,-3.3 -1.8133,-6.675 -2.4775,-7.5 -0.6643,-0.825 -1.7837,-3.975 -2.4876,-7 -1.2711,-5.46229 -7.8005,-23.89372 -9.7692,-27.57673 -0.5654,-1.0578 -1.8164,-4.17327 -2.78,-6.92327 -0.9636,-2.75 -2.8035,-6.67856 -4.0887,-8.73013 -1.2851,-2.05157 -2.3513,-4.52657 -2.3692,-5.5 -0.056,-3.04765 -3.3866,-11.50399 -7.1953,-18.26987 -2.0125,-3.575 -4.8387,-8.975 -6.2806,-12 -4.1116,-8.62586 -8.656,-16.35041 -10.6585,-18.11729 -1.0082,-0.88951 -1.833,-2.28429 -1.833,-3.09951 0,-0.81523 -1.3418,-3.46244 -2.9818,-5.88271 -1.64,-2.42026 -2.99,-5.11824 -3,-5.99549 -0.01,-0.87726 -0.8472,-2.34521 -1.8603,-3.26211 -1.822,-1.64888 -5.211,-6.49151 -12.6967,-18.142883 -2.1202,-3.3 -5.9127,-8.7 -8.4277,-12 -2.5151,-3.3 -5.1059,-7.21334 -5.7573,-8.69631 -0.6514,-1.48298 -2.7801,-4.46252 -4.7303,-6.6212 -1.9502,-2.15869 -3.5459,-4.23962 -3.5459,-4.62428 0,-0.74169 -4.4437,-6.27584 -14.8939,-18.54897 -6.4593,-7.58591 -9.0681,-10.42504 -17.9342,-19.51711 -2.6859,-2.75433 -5.2052,-6.02176 -5.5985,-7.26097 -0.3933,-1.2392 -1.9207,-2.88862 -3.3943,-3.66537 -1.4735,-0.77676 -7.6585,-6.28432 -13.7444,-12.2390399 -6.086,-5.95470996 -14.58056,-13.52675 -18.87696,-16.8267501 -4.2964,-3.3 -9.8033,-7.68439 -12.2375,-9.7431 -2.4342,-2.0587 -5.4146,-4.26762 -6.623,-4.9087 -1.2085,-0.64108 -2.7067,-1.88205 -3.3294,-2.75772 -0.6227,-0.87567 -4.6727,-3.80939 -9,-6.51938 -4.3273,-2.70999 -9.7302,-6.53462 -12.0064,-8.49918 -6.0879,-5.2543 -11.7751,-9.16838 -21.8614,-15.04558 -4.95,-2.88433 -11.1107,-6.75019 -13.6904,-8.59081 -2.5797,-1.84061 -7.3658,-4.6971 -10.6357,-6.34776 -3.2699,-1.65065 -7.9987,-4.38695 -10.5083,-6.08067 -2.5096,-1.69372 -7.1735,-3.97259 -10.3643,-5.06415 -3.1907,-1.09156 -8.0842,-3.55028 -10.8745,-5.46381 -2.7902,-1.91352 -5.6596,-3.47914 -6.3763,-3.47914 -0.7167,0 -4.0445,-1.39311 -7.3952,-3.09579 -6.8245,-3.467937 -16.7141,-7.342257 -24.0059,-9.404447 -2.6678,-0.75448 -5.6846,-2.12665 -6.7041,-3.04926 -2.0354,-1.84206 -16.5363,-7.27681 -21.6953,-8.13112 -2.793,-0.46251 -3.25,-0.94467 -3.25,-3.42879 0,-1.58982 -0.4,-2.89059 -0.8889,-2.89059 -0.4889,0 -0.8264,0.78728 -0.75,1.74952 0.2161,2.72141 -3.6661,2.69091 -12.1921,-0.0958 -4.2179,-1.37862 -11.9988,-3.42889 -17.2908,-4.55616 -5.2919,-1.12727 -10.9169,-2.56861 -12.5,-3.20296 -1.583,-0.63436 -6.2532,-1.72257 -10.3782,-2.41824 -4.125,-0.69567 -10.2,-2.02308 -13.5,-2.9498 -3.3,-0.92671 -8.7,-1.86142 -12,-2.07712 -3.3,-0.2157 -8.7,-0.83726 -12,-1.38124 -3.3,-0.54399 -9.6,-1.26875 -14,-1.61059 -4.4,-0.34184 -9.7041,-1.26264 -11.7868,-2.04622 -3.31218,-1.24611 -4.1522,-1.23576 -6.70159,0.0826 -2.06409,1.06739 -3.58551,1.23588 -5.21317,0.57736 -2.53724,-1.02654 -30.99308,-3.01061 -42.79844,-2.98411 -4.125,0.009 -14.7,0.71421 -23.5,1.56656 -8.8,0.85234 -18.25,1.68485 -21,1.85001 -2.75,0.16516 -6.24912,0.78764 -7.77582,1.3833 -1.6724,0.65251 -5.6753,0.83792 -10.06999,0.46643 -4.45365,-0.37647 -8.06686,-0.20305 -9.27834,0.44531 -1.09129,0.58404 -5.10979,1.34586 -8.93001,1.69293 -9.61045,0.87312 -18.99883,2.36958 -21.68824,3.45699 -1.24168,0.50205 -3.44546,1.16507 -4.8973,1.47339 -3.2446,0.68904 -4.46176,3.40495 -2.43449,5.43222 1.30771,1.30771 2.92047,1.33703 12.62104,0.22941 6.11696,-0.69845 16.82131,-2.16908 23.78745,-3.26808 15.10861,-2.38358 31.64665,-3.84857 42.75469,-3.78736 4.44895,0.0245 9.24618,-0.39538 10.66053,-0.93312 1.56523,-0.5951 5.69029,-0.66329 10.54135,-0.17425 4.3834,0.44189 11.73617,0.44594 16.33948,0.009 4.60331,-0.43695 12.19465,-0.39482 16.86965,0.0936 4.675,0.48845 15.25,1.37582 23.5,1.97194 13.8911,1.00374 17.4421,1.62224 29.3343,5.10932 3.3377,0.97869 4.7661,1.0013 6.2119,0.0984 2.036,-1.2715 15.0435,0.51677 23.9538,3.29317 2.475,0.7712 7.65,1.71167 11.5,2.08994 3.85,0.37827 8.125,1.24286 9.5,1.9213 1.375,0.67844 7.675,2.46034 14,3.95979 6.325,1.49944 14.2941,3.58268 17.7091,4.62942 3.415,1.04675 7.015,1.91722 8,1.93439 2.3339,0.0407 24.7359,7.98287 34.663,12.289107 2.1297,0.92382 4.1482,1.67967 4.4857,1.67967 0.3374,0 2.87,1.05836 5.6279,2.35191 12.7437,5.97728 16.6555,7.64809 17.9062,7.64809 0.7412,0 4.8938,1.87412 9.2279,4.16472 4.3341,2.2906 10.9914,5.7781 14.794,7.75 11.0393,5.72459 11.7997,6.15854 17.5862,10.03605 3.025,2.02705 6.85,4.39445 8.5,5.2609 6.7872,3.56407 13.3934,7.46156 17.4388,10.28833 5.3802,3.75954 10.7962,7.10909 14.1345,8.74159 2.3605,1.15431 7.7449,5.24799 13.4929,10.25841 1.2619,1.1 4.3691,3.575 6.9049,5.5 9.4331,7.16113 25.1887,20.2241101 30.0289,24.89707014 2.75,2.65497996 6.6928,5.94687996 8.76176,7.31533996 4.838,3.1999399 11.7382,9.5806799 11.7382,10.8544799 0,0.54246 5.2875,6.26182 11.75,12.7097 6.4625,6.44787 12.425,12.69064 13.25,13.8728 0.825,1.18217 3.291,4.78217 5.48,8 2.1891,3.21784 4.3432,6.00615 4.787,6.19626 2.4914,1.06721 7.354,6.18364 10.9663,11.53861 2.269,3.36366 4.8685,6.79074 5.7768,7.61574 0.9083,0.825 4.246,5.325 7.4173,10 3.1713,4.675 6.7924,9.625 8.0471,11 1.2546,1.375003 2.8604,3.625003 3.5683,5.000003 0.708,1.375 5.7691,9.24014 11.247,17.47809 5.4779,8.23794 10.581,16.73855 11.3402,18.89025 0.7591,2.1517 2.2266,5.31156 3.2611,7.02192 1.0345,1.71035 2.2094,4.23473 2.6109,5.60973 0.4016,1.375 1.7091,3.85 2.9056,5.5 1.1966,1.65 4.1253,7.275 6.5083,12.5 2.3831,5.225 4.73,9.99981 5.2153,10.6107 0.4854,0.61088 2.1789,4.99398 3.7634,9.74021 1.745,5.22679 4.1082,10.02719 5.9932,12.1741 1.7117,1.94952 3.1122,4.42247 3.1122,5.49544 0,2.78291 1.9892,10.90505 3.6157,14.76348 0.7614,1.80616 1.3843,4.30366 1.3843,5.55 0,1.24634 0.4466,2.71268 0.9925,3.25853 0.5458,0.54586 1.8365,4.12336 2.8681,7.95 2.0929,7.76364 5.3485,19.63681 8.0771,29.45754 0.9932,3.575 2.2757,7.85 2.8498,9.5 2.3547,6.76676 3.2125,10.30165 3.2125,13.23766 0,3.95556 3.0221,5.39124 6.9376,3.29575 z M 90.040253,266.53184 c -0.31922,-0.79773 -0.55618,-0.56078 -0.60416,0.60417 -0.0434,1.05416 0.19292,1.64479 0.52522,1.3125 0.33229,-0.33229 0.36781,-1.1948 0.0789,-1.91667 z m 4.69795,-11.5625 c -0.38616,-2.07911 -0.20327,-3.25 0.50765,-3.25 0.61121,0 1.07576,-1.2375 1.03234,-2.75 -0.0434,-1.5125 -0.30132,-2.075 -0.57312,-1.25 -0.6718,2.03918 -2.39034,6.12466 -3.4646,8.23643 -0.48583,0.95504 -0.88036,3.20504 -0.87674,5 l 0.007,3.26357 1.98576,-3 c 1.42517,-2.15308 1.81536,-3.9175 1.38212,-6.25 z m 5.739567,-15.13048 c 1.03365,-1.31408 1.87937,-3.4815 1.87937,-4.81648 0,-3.33376 2.98128,-12.43338 4.74731,-14.49003 1.35322,-1.57589 1.01926,-3.81301 -0.5692,-3.81301 -1.30091,0 -7.178107,12.39004 -7.178107,15.13257 0,1.08171 -0.62018,3.1819 -1.37818,4.66709 -0.82619,1.61879 -1.14944,4.10218 -0.80708,6.20034 0.40001,2.45146 0.69924,2.90215 0.99881,1.50438 0.23524,-1.0976 1.27342,-3.07078 2.307077,-4.38486 z m 10.37937,-32.11952 c 0.33992,-0.55 0.14148,-1 -0.44098,-1 -0.58246,0 -1.05902,0.45 -1.05902,1 0,0.55 0.19844,1 0.44098,1 0.24254,0 0.7191,-0.45 1.05902,-1 z m 3.91821,-3.60699 c 1.71817,-0.65932 2.15531,-3.92052 0.65021,-4.85072 -0.51237,-0.31666 -1.63737,0.43191 -2.5,1.66349 -2.48733,3.55116 -1.87009,4.61468 1.84979,3.18723 z m 7.58179,-17.92144 c 0,-2.53008 4.61584,-13.11611 6.126,-14.04944 1.17776,-0.7279 1.11808,-4.42213 -0.0714,-4.42213 -1.02951,0 -1.92955,1.53596 -7.82294,13.3502 -2.62986,5.27197 -3.75426,8.69618 -3.42358,10.42602 l 0.4924,2.57581 2.34977,-2.73178 c 1.29235,-1.50248 2.34975,-3.81938 2.34975,-5.14868 z m 17.09545,-32.69032 c 1.4275,-1.80469 2.88605,-4.78025 3.24122,-6.61236 0.35518,-1.83211 1.54972,-4.4803 2.65455,-5.88486 1.10483,-1.40456 2.00878,-3.22999 2.00878,-4.05651 0,-0.82652 1.52613,-2.80636 3.39141,-4.39964 1.86527,-1.59327 5.29407,-6.59384 7.61954,-11.11237 2.32548,-4.51852 4.84935,-8.57536 5.6086,-9.01519 0.75925,-0.43983 1.38045,-1.64669 1.38045,-2.68191 0,-1.03521 1.33875,-2.83548 2.975,-4.0006 1.83041,-1.30337 3.37453,-3.60214 4.01346,-5.974963 0.79274,-2.94401 1.74517,-4.10293 4.02501,-4.89769 1.83324,-0.63907 2.98653,-1.7407 2.98653,-2.85275 0,-0.99641 2.30636,-4.28232 5.12523,-7.30202 2.81888,-3.01971 7.61749,-8.86538 10.66357,-12.99038 3.04608,-4.125 6.58972,-8.49101 7.87476,-9.70225 1.28504,-1.21124 2.33644,-2.89874 2.33644,-3.75 0,-0.85126 0.43377,-1.54775 0.96393,-1.54775 0.53015,0 5.25515,-4.27036 10.5,-9.48968 9.33139,-9.28599 9.53607,-9.58989 9.53607,-14.15851 l 0,-4.66882 -6.75,6.40137 c -3.7125,3.52075 -7.501,7.75458 -8.4189,9.40851 -0.91789,1.65392 -4.18039,5.6253 -7.25,8.82529 -3.0696,3.19998 -5.5811,6.63289 -5.5811,7.62868 0,1.06328 -1.22117,2.31634 -2.95883,3.03611 -1.62736,0.67407 -4.88986,3.76443 -7.25,6.86746 -2.36014,3.10303 -5.11858,6.54361 -6.12985,7.64573 -1.01128,1.10212 -2.88991,4.02886 -4.17475,6.50386 -1.28483,2.475 -3.81599,6.075 -5.62479,8 -5.18363,5.51662 -9.9821,12.043723 -11.46735,15.598433 -0.75027,1.79564 -1.87194,3.57865 -2.49259,3.96224 -0.62066,0.38359 -1.96115,2.57983 -2.97886,4.88055 -1.01772,2.30071 -2.76673,5.01238 -3.88669,6.02594 -1.11996,1.01355 -2.0506,2.56057 -2.06809,3.43783 -0.0175,0.87725 -0.6925,2.46852 -1.5,3.53614 -0.80751,1.06762 -1.4682,2.6212 -1.4682,3.45239 0,0.8312 -1.31133,2.88269 -2.91406,4.55886 -1.60273,1.67619 -4.82001,6.64761 -7.1495,11.04761 -2.3295,4.4 -4.80922,8.83916 -5.5105,9.8648 -0.70129,1.02564 -1.00944,2.55701 -0.68479,3.40303 0.59975,1.56294 2.30707,-0.0773 9.3543,-8.98658 z m 33.00835,-85.077443 c -1.28349,-1.28349 -2.58505,-0.2915 -1.63484,1.24598 0.36808,0.59556 1.12735,0.79971 1.68727,0.45366 0.683,-0.42212 0.66575,-0.98146 -0.0524,-1.69964 z m 170.97761,-124.79239 c 6.1214,-3.34082 15.4698,-8.59589 20.77421,-11.67794 13.65855,-7.9361 16.77793,-9.48486 38.64438,-19.18687 2.75,-1.22016 7.025,-3.11911 9.5,-4.21989 2.475,-1.10078 6.13627,-2.86211 8.13615,-3.91407 1.99989,-1.05195 4.60784,-1.91264 5.79546,-1.91264 1.18761,0 3.26384,-1.10455 4.61384,-2.45455 2.71143,-2.711417 3.28742,-6.545447 0.98334,-6.545447 -2.54911,0 -17.90709,5.93262 -20.7383,8.010977 -1.49023,1.09396 -3.15067,1.98902 -3.68988,1.98902 -0.53921,0 -5.28523,2.025 -10.54672,4.5 -5.26148,2.475 -9.96735,4.5 -10.45749,4.5 -0.49013,0 -3.61209,1.35 -6.93769,3 -3.32559,1.65 -6.32316,3 -6.66126,3 -0.3381,0 -2.27584,1.31949 -4.30609,2.93221 -2.03025,1.61271 -5.71636,3.70869 -8.19136,4.65772 -2.475,0.94903 -6.5016,3.33267 -8.948,5.29699 -2.4464,1.96431 -6.54966,4.54519 -9.11835,5.73528 -2.5687,1.19009 -5.29947,3.06199 -6.06838,4.15977 -0.76892,1.09778 -3.02322,2.67501 -5.00957,3.50496 -4.28497,1.79038 -5.2094,3.02331 -4.33424,5.78068 0.60909,1.91907 0.80286,1.94991 3.04033,0.48386 1.31439,-0.86122 7.39821,-4.29925 13.51962,-7.64006 z M 616.7842,987.95405 c -1.8473,-1.2649 -2.32353,-3.8267 -2.96611,-15.9558 -0.66881,-12.6243 -2.48298,-20.8496 -5.39054,-24.4403 -1.67694,-2.0709 -2.1059,-2.1445 -5.88932,-1.011 -6.57739,1.9706 -8.41772,5.5195 -8.56135,16.5097 -0.0659,5.0395 0.22122,11.4345 0.63795,14.211 0.98659,6.5735 -0.7223,9.4723 -4.55462,7.7262 -1.62888,-0.7422 -2.77154,-2.3098 -3.24069,-4.4458 -0.39857,-1.8146 -1.28948,-4.206 -1.97981,-5.314 -1.00831,-1.6185 -1.00081,-3.6863 0.0381,-10.5147 1.95808,-12.8694 4.84998,-19.4842 10.80343,-24.7115 5.10545,-4.4826 9.69688,-5.0022 16.17891,-1.8308 6.30047,3.0825 6.24956,3.0214 10.44011,12.5423 3.03633,6.8985 3.31132,8.3822 3.42895,18.5 0.11905,10.2395 -0.0449,11.242 -2.37211,14.5 -2.44793,3.4271 -3.99971,4.9694 -5,4.9694 -0.275,0 -0.98282,-0.3306 -1.57294,-0.7347 z m -97.42706,-3.1766 c -0.825,-0.5651 -2.71241,-1.0344 -4.19424,-1.0428 -1.48183,-0.01 -3.8961,-1.0491 -5.36506,-2.3126 l -2.67083,-2.2974 1.72889,-7.9526 c 3.29312,-15.1479 3.37767,-16.3401 1.34241,-18.9275 -1.0223,-1.2996 -2.1379,-3.7588 -2.47911,-5.4649 -0.34121,-1.7061 -1.01226,-3.3441 -1.49122,-3.6401 -1.38108,-0.8536 -1.01687,-6.9252 0.80945,-13.4941 1.37111,-4.9316 2.42911,-6.6261 5.75,-9.209 2.23834,-1.741 4.29471,-3.4458 4.56971,-3.7884 1.28093,-1.5961 11.14727,-1.7571 15.55878,-0.254 10.84701,3.696 15.93524,13.1485 14.0297,26.0633 -0.67937,4.6044 -0.45929,5.7991 1.81933,9.876 1.4257,2.5508 2.59219,5.7833 2.59219,7.1832 0,1.3999 0.68607,3.3034 1.52459,4.23 0.83852,0.9265 2.02578,4.5299 2.63834,8.0075 1.05673,5.9992 1.00063,6.4144 -1.09595,8.1121 -1.21533,0.9842 -3.64008,1.9939 -5.38834,2.2439 -1.74825,0.25 -6.10364,0.917 -9.67864,1.4821 -11.68266,1.8467 -18.44905,2.2477 -20,1.1853 z m 23.30282,-29.5444 c 0.10845,-0.5425 -0.59032,-1.138 -1.55282,-1.3233 -1.0946,-0.2108 -1.75,0.2796 -1.75,1.3096 0,1.7398 2.9553,1.752 3.30282,0.014 z m -7.57385,-11.0137 c 2.24893,-1.925 4.56409,-3.5 5.14481,-3.5 1.33816,0 3.13654,-3.3051 3.09295,-5.6843 -0.053,-2.8901 -3.2605,-5.9686 -7.01062,-6.7286 -11.76935,-2.3851 -14.69098,-1.9988 -17.21619,2.276 -3.23696,5.4798 -1.63379,12.9679 3.37015,15.7414 4.2378,2.3488 8.18531,1.6905 12.6189,-2.1045 z"
       style="fill:#000000" />
  </g>
</svg>
