<?xml version="1.0" encoding="UTF-8" standalone="no"?>
<svg xmlns:rdf="http://www.w3.org/1999/02/22-rdf-syntax-ns#" xmlns="http://www.w3.org/2000/svg" height="614" viewBox="0 0 577 614" width="577" version="1.1" xmlns:cc="http://creativecommons.org/ns#" xmlns:dc="http://purl.org/dc/elements/1.1/">
<path d="m264.95 613c-9.5675-0.55936-12.914-2.1004-15.525-7.1489-2.2469-4.345-1.1778-13.477 1.6841-14.385 8.12-2.58 10.75-10.47 3.49-10.47-16.403 0-23.13-3.6608-22.247-12.107 1.7819-17.049-3.8086-45.376-12.61-63.893-6.8653-14.444-7.9491-16.359-11.884-21-16.41-19.352-16.142-19.274-22.902-6.6912-4.2274 7.8691-5.046 10.236-7.3303 21.191-0.68808 3.3-1.8886 7.125-2.6679 8.5-2.39 4.2172-1.7764 30.763 0.90146 39 1.1622 3.575 2.1189 7.3091 2.126 8.298 0.0218 3.04 6.8696 12.716 13.677 19.325l6.4722 6.2838-0.70081 4.7966c-0.38544 2.6381-1.7662 6.9191-3.0682 9.5133-1.3021 2.5942-2.3674 5.4498-2.3674 6.3456 0 13.398-37.286 16.018-48.5 3.4073-1.98-2.24-14.84-8.97-17.13-8.97-0.65719 0-1.3449-0.37455-1.5282-0.83233-0.18333-0.45779-4.1813-1.7894-8.8843-2.9592-20.458-5.09-35.574-20.3-30.302-30.5 5.937-11.48 8.708-12.68 24.352-10.56 9.199 1.2441 11 2.0654 11 5.0159 0 1.5572 0.70545 1.9102 3.75 1.876 17.996-0.20177 20.658 0.58748 19.767 5.8606-0.72207 4.2739 2.2352 9.1004 5.5759 9.1004 2.0477 0-0.41311-6.8438-3.0459-8.4709-0.53984-0.33365-0.75576-1.8267-0.47981-3.3178 1.3046-7.0497-5.008-18.772-10.62-19.72-2.1654-0.36585-4.1596-1.025-4.4314-1.4648-0.27181-0.43979-2.029-1.0876-3.9048-1.4394-1.8758-0.3519-3.9609-1.3029-4.6335-2.1134-0.67-0.82-2.04-1.48-3.03-1.48-5.6901 0-9.0799-12.322-8.8904-32.315 0.16458-17.363-6.0582-21.029-18.336-10.803-3.6652 3.0529-6.6955 0.46803-9.6005-8.1896-1.5974-4.7606-3.805-9.0535-5.6566-11-4.0534-4.2612-4.5783-5.2272-3.8589-7.1021 1.789-4.6622 11.176 2.5066 15.301 11.686l2.5956 5.7758 4-2.0737c18.82-9.757 32.069-12.863 90-21.1 16.069-2.2848 26.849-1.8362 34.572 1.4386 1.8852 0.79932 5.4526 1.975 7.9276 2.6127 14.313 3.6876 18.28 5.1314 28.32 10.308 6.0806 3.1352 11.682 1.8436 15.321-3.5327 4.9748-7.3492 5.7325-9.8134 6.059-19.704 0.17246-5.225 0.32967-9.95 0.34935-10.5 0.0197-0.55-0.17558-2.35-0.43393-4s-0.92039-5.925-1.4712-9.5-1.4578-7.85-2.0156-9.5c-0.55773-1.65-1.5305-6.825-2.1617-11.5-0.63118-4.675-1.8417-12.082-2.6901-16.459-1.1057-5.7052-1.356-10.612-0.88392-17.328 1.1865-16.88-3.4313-11.795-7.5268 8.2872-0.56082 2.75-1.4351 5.4275-1.9428 5.95-0.50773 0.5225-0.92314 2.0022-0.92314 3.2883 0 2.6846-9.3848 38.906-11.518 44.453-1.6353 4.2531-0.36778 9.8087 2.2378 9.8087 1.2058 0 1.2774-0.29783 0.34258-1.4243-1.4762-1.7788-0.47948-9.4335 1.5176-11.654 0.76-0.88 1.4-3.26 1.4-5.31 0-2.0465 0.65705-4.9915 1.4601-6.5445 0.80306-1.553 1.2147-3.069 0.91468-3.369-0.29999-0.29999 1.0113-6.3195 2.914-13.377 1.9027-7.0572 3.7921-14.181 4.1986-15.831 0.72766-2.9533 0.75546-2.9647 1.7858-0.73405 1.048 2.269-0.89249 14.516-3.4436 21.734-0.5832 1.65-1.3731 5.101-1.7553 7.669-0.38223 2.5679-1.1882 5.2679-1.791 6-0.60285 0.73205-1.3958 3.581-1.762 6.331-0.36628 2.75-1.0848 6.125-1.5967 7.5-1.5218 4.0876-1.7071 8.5769-0.42632 10.328 1.7516 2.3955 2.4977 0.9983 2.5336-4.7451 0.018-2.8748 0.66969-5.9267 1.5-7.0245 0.80751-1.0676 1.4682-3.2196 1.4682-4.7821s0.675-4.4565 1.5-6.431 1.5143-4.9976 1.5318-6.7179 0.6925-4.0014 1.5-5.069c0.80751-1.0676 1.4682-3.2192 1.4682-4.7814 0-1.6375 0.65349-3.091 1.5431-3.4324 2.334-0.89564 2.5491-0.11952 1.4519 5.239-0.55357 2.7037-1.4349 7.3062-1.9584 10.228-0.52356 2.9216-1.646 6.7032-2.4943 8.4036-0.84829 1.7004-1.5424 4.3949-1.5424 5.9877s-0.61152 4.1112-1.3589 5.5964c-2.1004 4.1738-2.6689 9.7801-1.1959 11.795 1.8403 2.5168 3.1349-0.20685 4.8811-10.27 0.75265-4.3371 1.8871-8.8548 2.5211-10.039 0.63-1.19 1.15-3.99 1.15-6.22 0-2.95 0.41-4.07 1.5-4.07 2.0189 0 2.0189 11.468 0 15-0.78602 1.375-1.4451 3.4968-1.4646 4.715-0.0195 1.2183-0.74607 4.3082-1.6146 6.8664-1.8527 5.457-1.2216 9.4185 1.5004 9.4185 3.0325 0 5.6319 9.9221 3.0219 11.535-1.8825 1.1635-5.3974-0.40659-7.2877-3.2553-1.0145-1.5289-3.4101-3.9048-5.3235-5.2798-1.9135-1.375-4.2334-3.2112-5.1555-4.0804-0.92205-0.8692-4.2631-2.3733-7.4246-3.3425-6.7989-2.0842-7.8334-3.283-4.8899-5.6664 1.7175-1.3908 2.9145-5.1229 5.6408-17.588 1.9033-8.7025 4.1438-17.097 4.9789-18.654 0.83509-1.5571 1.5184-4.3919 1.5184-6.2997 0-1.9077 0.68038-4.7843 1.512-6.3924 0.83158-1.6081 1.7092-5.0284 1.9504-7.6007 0.24113-2.5723 0.91075-5.1492 1.488-5.7265 0.5773-0.5773 1.0496-2.6595 1.0496-4.6271s0.61532-4.4651 1.3674-5.55c0.75205-1.0849 1.831-4.4475 2.3976-7.4725 1.3066-6.975 4.8795-19.589 6.6565-23.5 2.9502-6.4936 5.4457-20.846 3.8013-21.862-2.8091-1.7361-5.7511 0.62056-5.3979 4.324 0.20019 2.0992-0.20732 4.879-0.90557 6.1775-1.2851 2.3896-1.7554 4.1593-4.2155 15.861-0.75163 3.5753-1.8925 7.4832-2.5352 8.6842-0.64277 1.201-1.1687 3.2833-1.1687 4.6273s-0.675 4.0591-1.5 6.0336-1.5 4.774-1.5 6.221-0.63344 4.049-1.4076 5.7821c-0.7742 1.7331-1.6452 5.1664-1.9355 7.6296-0.29032 2.4632-1.0069 4.6382-1.5924 4.8333-0.58548 0.19516-1.0805 2.6798-1.1 5.5215s-0.67854 6.2917-1.4646 7.6667c-0.78602 1.375-1.4451 4.3225-1.4646 6.55s-0.42465 4.4775-0.90034 5c-0.4757 0.5225-1.4046 3.875-2.0642 7.45-0.65959 3.575-1.6048 7.85-2.1004 9.5-0.49564 1.65-1.168 4.3077-1.4941 5.9061-0.54549 2.6737-0.7219 2.7771-2.2059 1.293-1.3432-1.3432-1.7934-1.3862-2.6918-0.25704-3.8209 4.8028-7.17 1.8556-5.0477-4.4421 5.0621-15.021 6.3717-30.496 6.0082-71-0.12587-14.025 0.22603-28.659 0.782-32.52 0.55597-3.8612 0.65275-8.3612 0.21507-10l-0.79579-2.9797-0.81252 2.8574c-0.44688 1.5716-1.4603 3.5966-2.252 4.5-0.79171 0.9034-1.7228 2.5757-2.0692 3.7163-0.34634 1.1406-1.4264 2.9406-2.4001 4-0.97372 1.0595-2.8724 3.7263-4.2192 5.9263-2.6849 4.3857-4.7907 7.1396-6.7845 8.8726-3.95 3.4335-6.4678 6.468-7.6413 9.2095-2.8841 6.7375-5.6008 7.7338-19.26 7.0634l-12.199-0.59871-2.0514 2.881c-1.5374 2.159-2.0602 4.4711-2.0866 9.2266-0.0339 6.1184-1.9399 17.378-3.3196 19.611-2.9601 4.7896-26.243 7.0163-35.686 3.413-6.4572-2.4638-8.334-10.42-3.4146-14.475 6.5609-5.4081 8.5578-13.143 2.1442-8.3061-14.407 10.866-26.968 14.763-32.522 10.09-4.0227-3.3849-5.7556-2.2471-9.7 6.3686-3.35 7.3174-13.217 22.067-17.49 26.145-0.28815 0.275-2.8397 3.425-5.67 7-2.8304 3.575-6.0821 7.2831-7.2261 8.2402-2.609 2.19-2.636 4.8-0.07 7.76 1.1 1.2683 2 2.6943 2 3.1688 0 0.47452 2.025 3.6457 4.5 7.0471 5.7801 7.9436 6.0349 11.406 0.91013 12.367-9.6299 1.8066-23.168-24.358-15.759-30.456 1.0876-0.89496 2.6757-2.7522 3.5292-4.1272 0.85348-1.375 3.3658-4.525 5.583-7 6.5506-7.3123 9.6692-11.202 13.227-16.5 1.8471-2.75 4.1798-6.2193 5.1837-7.7095 1.005-1.49 1.826-2.98 1.826-3.31 0-1.01 5.312-11.87 6.589-13.48 3.5636-4.4809 2.7815-9.6039-1.928-12.628-8.4864-5.449-9.4155-10.247-3.3201-17.147 8.7333-9.8861 12.868-20.866 12.566-33.372-0.22137-9.1848-0.0366-9.476 8.0923-12.754 9.9449-4.0101 11.564-5.1764 13.861-9.9832 1.2128-2.5384 3.8034-6.4153 5.757-8.6153s4.6994-5.8 6.1018-8c2.7344-4.2896 5.0954-6.8219 9.3236-10 1.4634-1.1 5.9461-6.05 9.9614-11 6.3029-7.7701 16.794-19.146 27.495-29.815 1.65-1.645 4.3247-3.8026 5.9438-4.7947 3.7974-2.3268 2.2525-2.9937-7.6582-3.306-16.484-0.5194-51.633-15.839-64.453-28.091-8.0656-7.7085-8.6194-9.3151-5.0338-14.603 4.0397-5.9574 4.0851-6.91 0.47927-10.071-5.9855-5.2471-7.2321-5.3032-12.066-0.54339-3.6503 3.5943-7.3943 5.8655-17.874 10.843-0.91451 0.43435-3.9928 1.0988-6.8407 1.4766-4.484 0.59-9.362 3.23-11.996 6.49-5.415 6.69-29.149 21.29-33.34 20.51-6.778-1.28-10.01-12.6-3.595-12.6 1.0797 0 9.7011-5.8124 10.472-7.0603 1.0645-1.7224-2.2972-2.1152-5.2102-0.60887-7.113 3.68-16.327 2.93-16.327-1.33 0-1.0613-1.0125-2.4517-2.25-3.0898-6.4513-3.3264-8.9563-9.0752-4.5621-10.47 1.585-0.50306 2.6625-0.10829 3.9103 1.4326 2.5628 3.17 21.554-0.41 26.352-4.97 0.522-0.49 1.562-0.9 2.31-0.9 0.74778 0 5.1703-1.8188 9.8279-4.0418s8.9058-3.7714 9.4404-3.441c1.7242 1.0656 1.0351 3.5045-1.2779 4.5224-1.2375 0.54455-3.6 1.8398-5.25 2.8784-4.0492 2.5487-16.461 8.6992-19.25 9.5392-1.2375 0.37268-2.25 1.0577-2.25 1.5223 0 0.46459-1.8 1.1488-4 1.5205-2.2 0.37169-4 1.1258-4 1.6758 0 0.621 1.5962 0.73033 4.2115 0.28846 4.3309-0.73171 4.9423-0.95018 10.619-3.7951 1.8321-0.91806 4.4439-1.6692 5.804-1.6692 1.3602 0 4.8994-1.35 7.8649-3 11.875-6.6073 11.494-1.3113-0.5 6.9456-1.925 1.3252-5.75 4.4969-8.5 7.0481s-6.2375 5.4481-7.75 6.4375c-1.5125 0.98936-2.75 2.1971-2.75 2.6838 0 1.1562 4.7174 1.1512 5.4325-0.006 0.30278-0.48991 2.9168-2.1244 5.809-3.6323 2.8922-1.5078 6.5305-3.807 8.0852-5.1092 1.554-1.3 3.281-2.37 3.836-2.37 0.55531 0 3.3883-2.4756 6.2954-5.5012 4.9455-5.1471 5.6459-5.5318 10.88-5.9772 3.3574-0.2857 7.9063-1.6309 11.378-3.3648 14.721-7.3524 14.663-7.3036 17.281-14.517 1.3209-3.6404 3.4215-2.4816 9.9068 5.4649 5.1852 6.3534 6.2686 6.8081 8.4152 3.532 0.88453-1.35 2.7549-3.6917 4.1563-5.2039 2.81-3.0321 1.8035-5.5745-2.7834-7.0303-1.9876-0.63083-10.038-8.6375-16.267-16.179l-3.0751-3.723 1.4124-6.9106c1.5314-7.4926 0.8039-11.067-2.5036-12.302-7.1426-2.6674-17.173-11.158-17.229-14.584-0.01612-0.98808-1.413-2.5631-3.1042-3.5-5.5586-3.0795-6.2585-3.8734-6.2585-7.1 0-2.3807 0.83804-3.8792 3.3354-5.9641 3.918-3.27 3.366-5.14-1.515-5.14-3.1465 0-3.4414 0.27519-4.0186 3.75-0.3426 2.0625-1.3474 5.1792-2.2329 6.926-3.0501 6.0171 1.3285 16.012 8.7023 19.864 20.451 10.683 4.527 24.916-33.437 29.886-6.05 0.79211-13.7 2.1996-17 3.1277-3.3 0.92814-7.0255 1.9133-8.2788 2.1892-3.4661 0.76301-5.6262 4.2811-3.7689 6.1383 1.2607 1.2607 3.5147 1.2383 17.629-0.17505 21.134-2.1163 28.084 0.6738 16.919 6.7922-4.8715 2.6696-18.094 8.5021-19.288 8.5082-0.66651 0.003-2.5618 0.71188-4.2118 1.5744-4.4964 2.3505-13.762 4.5571-14.796 3.5235-2.0428-2.04-0.1333-4.61 4.308-5.8 11.059-2.96 18.988-6.53 18.988-8.54 0-1.47-0.445-1.8-1.75-1.3-12.437 4.82-25.286 3.94-25.227-1.73 0.0359-3.39 5.1583-12.01 7.977-13.42 9.0394-4.5231 15-6.1984 28-7.8703 12.28-1.5793 18.523-2.7945 25.732-5.009l5.2322-1.6072-0.29721-4.9895c-0.27254-4.5754-0.66531-5.2763-4.7322-8.4454-7.459-5.8-7.934-6.71-7.944-15.241-0.013-12.418 5.617-20.849 15.114-22.631 5.4271-1.0181 10.473 3.9625 9.3829 9.2623-2.4258 11.798 2.2437 19.234 16.809 26.766 5.4973 2.8428 6.4063 4.8222 6.183 13.464-0.38028 14.716 8.1373 24.231 30.91 34.528 15.495 7.0065 17.948 7.6457 30.61 7.9766 16.412 0.42884 22.338 4.763 13.553 9.9115-2.5042 1.4675-4.553 3.069-4.553 3.5587 0 0.48975-0.85141 1.1607-1.892 1.491-2.2477 0.71339-3.4194 4.2008-1.6407 4.8833 1.6385 0.62874 6.1975-2.0355 14.802-8.6503 4.0484-3.1121 6.7305-3.0046 6.7305 0.26985 0 1.1173 0.21986 2.0314 0.48857 2.0314 1.1029 0 4.5114-3.5332 4.5114-4.6764 0-1.7912 8.9182-8.3204 11.394-8.3417 1.1584-0.01 4.5812-1.3968 7.6062-3.0819 7.0668-3.9366 17.983-6.8328 20.881-5.5398 3.158 1.4091 2.6084 4.1957-1.1311 5.7351-3.7934 1.5616-12.75 10.156-12.75 12.235 0 0.78384-0.70789 2.0127-1.5731 2.7307-0.8652 0.71805-2.3929 2.9106-3.3949 4.8724-1.8154 3.5543-6.1598 8.7963-13.282 16.026-2.0625 2.0937-3.75 4.272-3.75 4.8406 0 2.1738 7.6983-3.337 12-8.5902 2.475-3.0225 5.9625-6.9911 7.75-8.8192s3.25-3.798 3.25-4.3774c0-5.2426 18.886-18.287 24.515-16.933 0.54172 0.13039 1.6599-0.033 2.4849-0.36314 0.825-0.33012 2.4-0.79936 3.5-1.0428 1.1-0.2434-0.0684-0.49475-2.5964-0.55855-9.0657-0.2288-12.765-3.8842-9.2525-9.1435 6.0607-9.0757 13.703-13.875 18.304-11.495 1.6198 0.83764 4.2625 1.523 5.8727 1.523 1.6101 0 4.5678 0.68533 6.5725 1.523 3.9878 1.6662 7.5993 0.68398 7.5993-2.0668 0-0.81041 1.35-3.3371 3-5.6149 3.7472-5.1729 3.7472-6.5775 0-10.68-1.65-1.8065-3-3.9052-3-4.6638 0-2.5198-1.7591-2.514-3.4137 0.0113-2.0731 3.1639-5.3323 3.3003-5.7668 0.24141-0.40649-2.8622-2.2222-2.9327-2.6257-0.10194-0.58 4.19-6.18 4-6.18-0.2 0-1.5-0.58-2.44-1.5-2.44-2.981 0-1.0735-6.3162 3.2817-10.866 0.71918-0.75134 1.175-1.7638 1.013-2.25-0.67994-2.0398-2.2196-1.1507-4.0221 2.3226-2.0054 3.8643-5.2506 5.7153-6.983 3.983-0.67887-0.67887-0.42476-1.9985 0.77641-4.0319l1.7856-3.0227-3.6804-4.4915c-4.7697-5.8208-8.771-7.2122-16.054-5.5823-10.855 2.4292-20.124-7.3447-12.61-13.296 5.76-4.577 22.98-21.569 22.98-22.694 0-0.63793 1.9177-3.2781 4.2616-5.867 6.86-7.575 14.03-16.764 21.22-27.207 1.3258-1.925 4.919-7.8573 7.9849-13.183 6.3288-10.994 6.9203-11.313 15.719-8.5008 8.2798 2.6468 11.369 6.8714 9.3039 12.724-2.1873 6.1993-1.9039 7.3898 2.2277 9.3601 8.6132 4.1074 15.979 12.307 13.386 14.9-0.60464 0.60464-1.0471 2.0218-0.98334 3.1493 0.0867 1.5323 0.22649 1.634 0.55356 0.40262 0.24066-0.90606 1.2452-1.8586 2.2323-2.1167 1.0472-0.27385 2.0593-1.7917 2.4297-3.644 0.66741-3.3371 6.5694-7.0215 11.325-7.0699 3.2399-0.03299 15.009-5.5971 17.852-8.4397 10.633-10.633 14.915 9.5376 4.3508 20.493-7.1464 7.4108-12.085 13.037-11.711 13.343 2.1514 1.7583 4.632 2.1938 8.0813 1.4188 4.5118-1.0137 10.441-0.19342 11.534 1.5957 0.40476 0.66262 2.8734 2.658 5.4859 4.4341s4.75 3.8827 4.75 4.6813c0 1.0992 1.3971 1.4557 5.75 1.4673 6.3895 0.01702 7.0471 0.30699 9.5231 4.1995 2.2404 3.5221 2.1772 5.2236-0.39125 10.529l-2.1182 4.3755 2.1182 2.2547c1.165 1.2401 2.1182 2.7331 2.1182 3.3178 0 0.58471 0.675 1.6233 1.5 2.308 0.825 0.68469 1.5 1.9419 1.5 2.7937 0 0.85185 0.62492 2.2592 1.3887 3.1276 2.2658 2.5759 2.9862 7.7209 1.1782 8.4147-0.94643 0.36318-1.9618-0.20532-2.6442-1.4806-0.7978-1.4907-1.4122-1.7658-2.195-0.98297-0.78288 0.78288-0.71976 1.7736 0.22551 3.5399 1.5592 2.9133 0.78992 5.5877-1.6072 5.5877-0.94432 0-2.7947 1.0125-4.112 2.25-2.4858 2.3352-5.2339 0.84712-5.2339-2.8341 0-4.0292-4.6244-2.4321-5.284 1.8249-1.4506 9.3621-4.064 12.72-9.9189 12.744-8.196 0.0339-11.748 5.0087-7.2068 10.094 7.86 8.8-18.78 26.92-39.59 26.92-4.1956 0-4.4418 1.462-0.74964 4.45 5.6185 4.5469 8.196 7.0132 10.003 9.5717 6.7276 9.5244 11.486 17.083 12.903 20.496 4.0919 9.8569 5.6798 14.226 6.3536 17.482 0.88 4.2529 2.1789 6 4.4607 6 5.7378 0 5.4097 8.5042-0.43081 11.165-1.3019 0.5932-2.5806 1.8946-2.8414 2.8921-0.81852 3.13 2.3124 3.1047 6.2968-0.051 4.1145-3.2587 7.732-3.8889 8.6463-1.5063 1.0846 2.8264 3.211 1.4978 5.5358-3.459 1.8898-4.0293 2.8086-4.9667 4.9007-5 5.273-0.0839 26.666-8.5358 31.629-12.496 1.7642-1.4077 6.3717-4.0162 10.239-5.7967 7.9827-3.6753 8.0263-3.7418 8.6936-13.248 0.73749-10.507 4.3731-23.422 7.1459-25.385 1.255-0.88841 5.0963-3.6403 8.5362-6.1153s7.138-5.0057 8.2181-5.6238c2.2859-1.308 2.3359-2.8046 0.55992-16.738-1.92-14.98-2.41-14.38 14.39-17.64 3.3-0.63935 7.8-1.5681 10-2.0639 9.66-2.18 19.64-3.94 22.33-3.94 1.604 0 4.6605-0.60945 6.7922-1.3543 2.1316-0.74489 6.5757-1.661 9.8757-2.0358s10.95-2.0196 17-3.6552c6.05-1.6355 12.125-3.2152 13.5-3.5104 2.8638-0.6148 7.611-2.0497 13.782-4.1657 8.408-2.8832 10.651 1.6859 12.28 25.02 2.3554 33.733 2.3348 41.419-0.11421 42.73-4.5661 2.4437-5.6701-4.1589-6.302-37.689-0.50147-26.61-0.65469-26.855-12.976-20.743-1.5571 0.77238-3.4024 1.4043-4.1006 1.4043-0.69828 0-5.7243 1.29-11.169 2.8667-12.536 3.6302-20.725 5.4614-36.399 8.1394-6.875 1.1746-16.1 3.0302-20.499 4.1235-4.3994 1.0933-11.102 2.3775-14.894 2.8536-7.0375 0.88366-8.9829 2.1613-8.017 5.2651 0.2992 0.96154 0.54709 3.2115 0.55086 5 0.004 1.7885 0.4406 6.706 0.97074 10.928 1.1713 9.328 0.49113 13.217-2.0719 11.845-1.822-0.97513-9.0332 0.44056-9.0462 1.7759-0.004 0.38665-1.6073 1.7931-3.5635 3.1254-4.2875 2.9202-6.4297 6.7562-6.4297 11.514 0 15.06-6.205 27.999-15.808 32.965-4.3236 2.2358-4.5576 3.1617-2.2998 9.0992 2.5344 6.6649 2.5822 6.661 19.654-1.6234 8.1716-3.9655 15.329-7.176 15.906-7.1344 0.5767 0.0416 3.6549 0.79075 6.8404 1.6648 7.0986 1.9478 30.207 3.1932 33.708 1.8165 2.389-0.93946 2.3001-1.0339-2-2.1265-2.475-0.62887-6.3328-1.6192-8.5729-2.2006-12.146-3.1526-14.593-11.394-3.6068-12.147 4.8073-0.32949 9.6021-1.3478 12.445-2.6429 2.5437-1.1588 5.2121-2.1748 5.9298-2.2579 0.71767-0.083-3.4526-0.46587-9.2672-0.85071-18.438-1.2203-19.369-6.2776-1.2198-6.6281 5.453-0.10531 11.687-0.66815 13.853-1.2507 7.071-1.9017 17.687-3.0567 19.446-2.1157 1.124 0.60155 4.6283 0.0614 10.587-1.6319 9.9835-2.8372 12.134-3.3871 24.906-6.3692 4.95-1.1557 9.9821-2.5889 11.183-3.1848 3.0178-1.4982 5.3175-0.36182 5.3175 2.6278 0 3.2545-2.9329 5.0518-10.5 6.4347-9.7442 1.7808-17.655 3.7995-23.191 5.9178-2.8551 1.0925-5.3962 1.7814-5.6468 1.5307-1.4961-1.4961-11.574-0.77363-12.001 0.86034-0.53299 2.0382-10.762 6.9277-21.763 10.403-6.4218 2.0286-13.731 6.0023-11.898 6.4687 0.275 0.07 5.2203 0.64747 10.989 1.2833 13.291 1.4648 14.025 3.0096 4.8496 10.218-6.1838 4.858-42.592 5.2264-50.226 0.50816l-3.3731-2.0847-1.6125 2.461c-0.88686 1.3535-3.7533 3.6817-6.3699 5.1736-2.6166 1.492-5.6636 3.5164-6.7711 4.4988-1.1075 0.98236-3.5872 2.4436-5.5105 3.2472-6.0484 2.5272-9.1394 6.0742-7.971 9.1472 2.3892 6.284-2.8907 14.76-13.578 21.798-11.857 7.8087-22.32 13.63-27.927 15.539-3.3 1.1236-7.9908 2.7666-10.424 3.6511-4.0754 1.4814-14.124 3.8684-21.712 5.1575-4.8942 0.83146-15.997-6.485-20.758-13.678-1.4339-2.1668-4.7444-6.0865-7.3567-8.7104-2.6122-2.6239-6.0194-6.6416-7.5715-8.9283-1.5521-2.2866-5.297-7.0116-8.3221-10.5-6.2942-7.258-13.653-21.632-16.811-32.835-2.9094-10.323-5.9889-11.417-5.204-1.8478 0.75188 9.1665 2.2638 19.393 3.0569 20.676 2.2368 3.6192-3.7556 7.1078-8.244 4.7994-1.4599-0.75082-4.6793-2.3448-7.1543-3.5421-6.8284-3.3034-9.1551-4.7456-12.023-7.4527-2.716-2.5635-5.1659-2.3134-4.0903 0.41755 0.99749 2.5325 16.413 14.942 18.562 14.942 0.19129 0 2.178 1.0396 4.415 2.3102l4.0672 2.3102-10.465 10.892c-5.77 5.98-10.48 11.23-10.48 11.65 0 2.7228-7.1614 5.5415-10.789 4.2464-4.0649-1.4512-14.845-1.8859-15.378-0.62006-0.51368 1.2214-7.3924 5.2074-8.9866 5.2074-0.77944 0-5.7725 2.1712-11.096 4.8249-9.0741 4.5236-9.8713 4.7439-12.764 3.5277-1.9037-0.80044-5.46-1.125-9.2862-0.84756-13.833 1.0032-19.505 1.6637-25.701 2.9934-3.575 0.76719-11 2.128-16.5 3.0241-17.522 2.8547-32.98 7.0412-40.6 10.996-2.9698 1.5412-6.028 3.0872-6.7961 3.4355-1.0285 0.46642-1.4323 2.9938-1.5323 9.5896-0.15889 10.484-5.0233 21.935-13.372 31.479-10.692 12.222 11.496 15.161 40.138 5.3169 13.87-4.7673 15.702-7.1937 13.699-18.146-0.92181-5.041-0.0438-6.8042 2.666-5.3539 2.409 1.2893 7.3983 10.64 6.301 11.81-0.43875 0.46759-1.0397 2.6502-1.3355 4.8502-1.8616 13.848-6.4763 24.684-13.242 31.093-6.319 5.9869-4.8146 9.3537 4.1973 9.3931 12.299 0.0538 24.073-15.55 26.43-35.027 0.62-5.2 1.71-10.58 2.41-11.96 1.38-2.69 4.53-14.81 4.53-17.41 0-2.2344-2.4618-1.9834-10.504 1.0708-7.2906 2.7687-14.384 3.9839-17.122 2.9333-3.034-1.1643 0.38884-3.2244 7.6262-4.5899 3.8639-0.72907 7.5247-1.9273 8.1351-2.6628 0.61039-0.73547 2.1315-1.3372 3.3804-1.3372 1.2488 0 2.5406-0.70374 2.8707-1.5639 1.0556-2.7509 7.056-1.4794 7.3801 1.5639 0.14644 1.375 0.72797 4.075 1.2923 6 0.76945 2.6248 0.65801 4.8754-0.44563 9-1.8576 6.9425-1.4662 7.2774 6.9584 5.9542 3.8108-0.59857 11.393-1.4003 16.849-1.7816 6.3133-0.44124 10.066-1.1321 10.322-1.9 0.22123-0.66369 1.4947-2.8165 2.8299-4.784s2.4276-3.9728 2.4276-4.4562c0-0.48338 1.0358-2.1509 2.3019-3.7056 3.2576-4.0003 5.5836-10.366 7.7668-21.256 1.0397-5.1863 2.3496-9.8888 2.9108-10.45 0.56123-0.56123 1.0204-1.6901 1.0204-2.5085 0-2.019 4.2242-8.0966 5.6334-8.105 1.4594-0.009 2.3575 3.3899 1.3336 5.0466-0.43336 0.70119-0.54494 2.7722-0.24797 4.6022 0.29698 1.83 0.0569 3.9094-0.53341 4.6207-0.59036 0.71133-1.0862 2.8526-1.102 4.7585-0.0157 1.9058-0.31298 5.8808-0.66058 8.8333-0.65451 5.5594 1.6522 7.5212 2.4146 2.0535 0.18572-1.3319 1.2849-3.443 2.4427-4.6912 1.1943-1.2876 2.215-3.8835 2.3593-6 0.67368-9.8821 1.2358-13.506 2.253-14.523 0.60906-0.60906 1.1074-1.8692 1.1074-2.8004 0-2.7305 2.7658-3.0125 5.6039-0.57128 2.5326 2.1785 2.6399 2.7024 2.8808 14.073 0.29084 13.729 0.97186 14.615 10.515 13.682 6.0416-0.59058 5.8213-0.0646 5.3393-12.749-0.49595-13.051 0.19744-15.845 4.6778-18.847 1.6374-1.0971 2.9785-2.317 2.98-2.7108 0.002-0.39381 3.2775-4.6688 7.2798-9.5s8.5252-10.471 10.051-12.534c4.2965-5.8083 4.4081-5.757 13.073 6.0065 2.94 3.991 6.5364 8.1933 7.992 9.3383 7.6406 6.0101 6.9526 26.04-2.0526 59.754-2.0055 7.5081-3.965 16.576-4.3546 20.151-1.2132 11.133-5.6622 25.389-9.8002 31.404-4.3972 6.3915-6.9599 7.7437-15.299 8.0724l-7.3873 0.29112-0.30993 3.6088c-0.17687 2.0595 0.98472 7.6897 2.7056 13.114 3.7219 11.732 5.4215 20.789 4.6015 24.522-0.58908 2.6821-0.27701 4.421 2.9589 16.487 3.1695 11.819 3.7455 14.263 4.4782 19 0.85803 5.5482 2.2784 11.516 5.2359 22 1.0861 3.85 2.3487 8.35 2.8057 10 1.6423 5.9294 0.92079 9.7544-3.6596 19.4l-4.56 9.6-0.29 15.5c-0.28443 15.486-1.3293 24.141-4.0363 33.432-1.9812 6.7995-1.8554 8.5685 0.60893 8.5685 1.1252 0 4.0981 1.0925 6.6064 2.4278 4.7397 2.5231 8.3835 2.5251 6.2907 0.003-3.6388-4.3845 2.8358-7.9577 17.503-9.6601 24.596-2.8547 35.417-0.73835 40.612 7.9432 1.2459 2.0821 3.1172 4.7409 4.1583 5.9083 4.9587 5.5605 2.1326 17.024-4.9344 20.015-3.9118 1.6557-45.465 1.8995-51.782 0.30382-4.5386-1.1465-20.035-1.2317-29-0.15949-3.3 0.39471-9.8485 0.49265-14.552 0.21765zm-16.02-230.62c0.04-1.72 0.75-5.04 1.57-7.38 0.825-2.3383 1.5143-5.8824 1.5318-7.8757 0.0175-1.9934 0.6925-4.4978 1.5-5.5654 0.80751-1.0676 1.4842-3.5426 1.5036-5.5 0.0195-1.9574 0.67854-4.6839 1.4646-6.0589 0.78602-1.375 1.461-3.85 1.5-5.5s0.71398-4.125 1.5-5.5 1.4451-3.8624 1.4646-5.5275 0.67326-3.9381 1.4528-5.0511c2.2576-3.2232 3.034-9.0342 1.2961-9.7011-2.2548-0.86523-6.1361 5.074-5.8727 8.9863 0.12128 1.8007-0.4321 4.5361-1.2297 6.0785-0.79762 1.5424-1.6774 5.4278-1.955 8.634-0.27765 3.2063-0.98885 6.3136-1.5804 6.9052-0.59159 0.59159-1.0756 2.9841-1.0756 5.3166 0 4.4252-1.4018 6.3572-3.2626 4.4964-0.78444-0.78444-0.60427-3.1196 0.64525-8.3629 0.95346-4.001 2.0982-9.9745 2.5439-13.275 0.44569-3.3 1.6222-7.6756 2.6145-9.7235 1.5135-3.1236 1.6064-4.1575 0.5767-6.4174-2.1792-4.7829-5.0675-0.43949-5.7932 8.7119-0.32399 4.086-1.1464 8.104-1.8275 8.929-0.68112 0.825-1.5164 4.2-1.8561 7.5-0.33974 3.3-0.90214 8.0991-1.2498 10.665-0.59082 4.3601-0.47731 4.6866 1.7384 5 3.1084 0.43973 3.8155 8.0721 1.3468 14.537-1.1692 3.0614-1.4378 5.5515-0.92337 8.5582 0.81394 4.7571 2.2439 3.0222 2.3768-2.8837zm83.57-222.46c1.1-0.50737 4.6471-1.8191 7.8825-2.915 7.3-2.46 16.62-10.05 16.62-13.52 0-4.2041-3.5985-5.7249-8.1057-3.4255-7.2603 3.7039-16.545 1.9982-15.262-2.8039 0.66716-2.4976 1.7028-2.7163 5.9685-1.2606 6.9468 2.3706 15.189-3.6765 18.387-13.489 0.71684-2.2 2.1379-5.0732 3.1579-6.3849s1.8546-3.4492 1.8546-4.75 0.3375-2.368 0.75-2.3715c0.98414-0.008 4.25-5.7727 4.25-7.5015 0-0.74014 1.35-2.0192 3-2.8423 4.2376-2.114 3.9802-1.0063-3.0852 13.277-6.7613 13.669-6.7949 15.855-0.19239 12.495 2.0777-1.0573 3.902-1.9717 4.054-2.0321 0.15201-0.0603 1.2034-2.7603 2.3364-6s3.1462-7.3228 4.4736-9.0736c2.4771-3.2671 3.1908-7.7183 1.4136-8.8167-0.55-0.33992-1-1.3576-1-2.2614 0-0.90386-1.4224-3.1109-3.1609-4.9046l-3.1609-3.2612 2.726-1.0364c1.4993-0.57003 3.7092-1.0381 4.9109-1.0402 5.7287-0.0098 12.257-7.3972 9.4867-10.735-1.212-1.4604-8.8157-1.3737-12.802 0.14599-2.6611 1.0145-4.8351-1.1883-2.75-2.7864 5.1277-3.93-4.0357-10.022-14.61-9.7132-4.516 0.13186-8.2382-0.26429-9.4204-1.0026-4.7003-2.9354-6.0538 4.4368-3.6614 19.943l0.67082 4.348-2.5374-1.6626c-1.6906-1.1077-2.7549-2.9498-3.189-5.5197-0.35841-2.1214-1.3543-4.1267-2.2131-4.4563-1.414-0.5426-1.4143-0.76249-0.003-2.3283 4.18-4.63 2.93-9.212-1.28-4.728-1.2918 1.375-3.1359 2.5-4.098 2.5-1.3373 0-1.946 1.2349-2.5838 5.2419l-0.83438 5.2419-4.6858 0.85608c-4.3099 0.7874-4.7104 1.109-4.9919 4.0081-0.2797 2.8807-0.58289 3.1306-3.5214 2.903-2.3546-0.18242-3.5017 0.28606-4.2852 1.75-0.58844 1.0995-1.7853 1.9991-2.6597 1.9991-1.2492 0-1.4551 0.67338-0.96119 3.1432 0.36136 1.8068 0.14986 3.72-0.49744 4.5-0.80516 0.97016-0.81277 1.3568-0.0267 1.3568 1.9063 0 4.6824 5.0501 3.2595 5.9295-1.1874 0.73383-8.3363-1.0266-12.787-3.1489-3.6669-1.7485-6.7093-0.23184-9.0022 4.4876l-2.1079 4.3388 3.1415 6.407c5.5628 11.345 14.738 14.376 21.525 7.1108 3.0104-3.2227 3.9952-3.5319 7.9097-2.4833 2.1477 0.5753 1.8942 1.0166-4 6.9614-7.0099 7.0702-9.6384 7.766-19.445 5.147-3.6076-0.96347-4.7718-0.97636-5.079-0.0562-0.21914 0.65658-1.7312 2.8709-3.3603 4.9208-3.8041 4.7868-3.6011 5.1911 4.7575 9.4738 3.8518 1.9736 9.0712 5.0111 11.599 6.75 6.2246 4.2826 8.0015 3.6052 12.17-4.6398 2.0854-4.1244 4.4137-5.1256 6.2093-2.6699 2.0434 2.7946 1.6382 5.0215-1.1446 6.2894-2.6224 1.1948-3.4244 4.6925-1.25 5.4518 1.7494 0.61086 8.8494-0.23841 11.25-1.3457zm-34.25-36.955c-3.5414-1.4234-2.4879-4.5223 1.7398-5.118 3.286-0.46301 3.8417-3.4558 0.81709-4.4002-2.3041-0.71935-3.7626-2.1858-3.7916-3.812-0.008-0.47371 1.6722-0.5323 3.7347-0.13019s5.325 0.83774 7.25 0.96808 5.525 0.5888 8 1.0188l4.5 0.78181-5.5 1.9132c-3.025 1.0522-6.2875 2.1673-7.25 2.478-1.0094 0.32584-1.75 1.5586-1.75 2.9131 0 3.5925-3.4683 5.1084-7.75 3.3874zm34.73-38.525c-1.2422-3.2672-1.2252-4.4196 0.12258-8.2857 1.2079-3.465 3.0374-4.3823 2.1768-1.0914-0.35749 1.367 0.33406 2.9681 2.0602 4.7698 1.8306 1.9107 2.426 3.371 2.0151 4.9422-0.85059 3.2527-5.0955 3.0296-6.3747-0.33493zm28.649-2.2978c-5.4145-5.9829-1.0413-18.999 4.5161-13.441 2.8039 2.8039 3.5783 9.5586 1.4655 12.783-1.965 2.9989-3.6914 3.1889-5.9817 0.65825zm-85.369 32.878c0.93464-1.0916 1.9834-3.1166 2.3306-4.5 0.34722-1.3834 1.0437-2.5153 1.5476-2.5153 0.50399 0 1.3541-1.0125 1.8892-2.25 1.1768-2.7216 3.0383-5.6862 4.7276-7.5292 0.6875-0.75001 1.2621-1.894 1.2769-2.5422 0.09-3.913 15.82-15.238 37.77-27.184 5.0513-2.75 9.1883-5.6053 9.1934-6.345 0.006-0.93454-1.3546-0.5457-4.4599 1.2741-2.4581 1.4405-12.021 6.4897-21.25 11.22-9.2294 4.7307-17.456 9.1736-18.281 9.8731-0.825 0.69951-4.65 2.9297-8.5 4.956s-7.675 4.2693-8.5 4.9845c-0.825 0.71517-2.5125 1.6089-3.75 1.986-3.27 0.999-2.75 2.552 0.85 2.552 1.8091 0 4.9975-1.2773 7.6396-3.0604 2.5944-1.751 4.9094-2.6857 5.4104-2.1846 0.87063 0.87063-1.6775 7.1924-3.3538 8.3207-1.71 1.15-7.8 11.4-7.8 13.14 0 2.3308 1.1477 2.26 3.2549-0.20097zm-31.356-33.613c10.881-8.9314 26.28-23.845 27.93-27.049 0.91903-1.785 3.921-5.6322 6.671-8.5494 6.3272-6.7118 16.776-21.621 20.01-28.554 0.83404-1.7875 1.9183-3.25 2.4094-3.25 2.1039 0-0.47783-4.3312-3.2854-5.5117-4.1294-1.7363-6.3916-0.10774-8.6235 6.2079-1.7832 5.046-17.268 31.727-19.054 32.831-0.57068 0.3527-2.1737 2.4409-3.5622 4.6405-2.65 4.184-28.03 29.827-29.53 29.827-0.48 0-0.87 0.9-0.87 2 0 3.0256 1.7486 2.4506 7.8988-2.5975zm-160.02 373.53c-5.851-1.38-15.885-7.09-15.885-9.03 0-2.5901 3.8447-2.6838 8.8327-0.21523 6.9111 3.4203 21.059 4.895 31.357 3.2686 4.0205-0.63498 10.235-1.4975 13.81-1.9167 3.575-0.41921 8.3-1.2472 10.5-1.84 19.685-5.3039 75.934-11.531 80.222-8.8813 0.48046 0.29694 1.4989 0.15344 2.2631-0.3189 3.8738-2.3941 11.241 4.8316 9.0672 8.8932-1.0412 1.9455-1.1283 1.9381-5.3054-0.45018-7.6067-4.3492-28.978-3.4621-63.247 2.6253-9.35 1.6609-22.4 3.9362-29 5.0562s-13.887 2.448-16.193 2.9513c-5.1219 1.1177-21.473 1.03-26.422-0.14177zm394.38-270.84c-4.4909-2.8445-3.286-5.9201 3.3379-8.5204 2.6896-1.0559 7.1403-2.9243 9.8903-4.152s6.841-2.7244 9.0912-3.326c4.1334-1.105 7.9765-4.2011 6.7443-5.4333-1.3381-1.3381-6.0974-0.6128-12.396 1.889-9.9264 3.9429-14.173 5.5048-17.44 6.4143-1.65 0.4594-6.2392 1.9984-10.198 3.42-8.589 3.0841-10.6 2.7607-9.1256-1.4678 0.56025-1.6071 1.4191-2.6746 1.9085-2.3721 0.81662 0.5047 25.429-7.0777 32.415-9.9864 14.027-5.8395 24.5-5.4808 24.5 0.8393 0 4.0883-3.04 8.1553-6.7342 9.0094-22.65 5.2362-24.783 9.4609-4.7712 9.4465 16.297-0.0117 20.505 0.43381 20.505 2.1711 0 3.6445-42.343 5.4796-47.728 2.0684zm39.278-11.02c-0.67772-1.0966 3.5438-2.5782 13.003-4.5638 10.129-2.1262 22.681-5.1811 24.7-6.0117 3.1518-1.2966 6.9156 0.29794 6.5627 2.7802-0.26346 1.8528-1.1425 2.3157-5.3794 2.8328-2.7854 0.34-6.6104 1.1298-8.5 1.7551-10.071 3.3326-29.069 5.338-30.386 3.2073zm1.45-10.02c0-2.7218 0.0499-2.7389 17.668-6.0636 18.562-3.5028 17.94-3.458 18.748-1.3523 0.94373 2.4593-11.538 6.3569-20.358 6.3569-2.098 0-5.43 0.675-7.4045 1.5-5.15 2.15-8.65 1.97-8.65-0.44zm-41.306-4.6985c-0.98931-0.98931 0.23557-2.3598 2.1152-2.3667 0.93004-0.003 2.9799-0.67839 4.5553-1.5s4.2754-1.4966 6-1.5c1.7246-0.003 4.4246-0.67839 6-1.5s4.1336-1.4938 5.6849-1.4938 4.0874-0.4965 5.6357-1.1033c4.35-1.71 30.58-8.9 32.45-8.9 6.0027 0 2.0645 4.5809-5.2043 6.0536-7.741 1.5683-26.831 6.8764-30.709 8.5387-1.8062 0.77425-5.8562 1.422-9 1.4395-3.4326 0.0191-6.4915 0.61833-7.6572 1.5-1.9423 1.4691-8.6603 2.0334-9.865 0.82872zm40.31-1.7c0-1.6 4.17-3.66 7.41-3.66 1.2736 0 5.8649-0.87078 10.203-1.9351 12.785-3.1366 14.682-3.3279 16.886-1.7025 2.8293 2.0869 2.7753 2.106-15.578 5.5376-19.01 3.56-18.92 3.55-18.92 1.76zm-41-6.5931c0-1.14 0.34-2.07 0.75-2.07 0.41271 0 3.9002-0.69449 7.75-1.5433 3.8498-0.84882 9.2496-1.9116 12-2.3617 2.75-0.45014 8.4112-1.7624 12.58-2.9162 12.09-3.3456 26.843-6.3441 27.925-5.6754 2.3225 1.4354 0.36022 2.4161-10.755 5.3754-6.4625 1.7205-14.04 3.8016-16.838 4.6247-2.7983 0.82307-6.4816 1.4965-8.1849 1.4965-1.7034 0-4.3638 0.49128-5.9121 1.0917-1.5483 0.60045-5.7401 1.5104-9.3151 2.022-3.575 0.51166-7.2875 1.1757-8.25 1.4757-1.2782 0.39835-1.75-0.012-1.75-1.522zm68.54-10.32c-2.7173-8.6356-0.86459-16.75 3.8244-16.75 1.9686 0 3.6403-0.57992 3.9426-1.3677 0.68038-1.7731 5.4329-2.6818 6.4975-1.2424 0.88207 1.1926 0.69355 15.989-0.2226 17.471-1.4351 2.322-13.399 3.9314-14.042 1.8888zm10.263-10.623 0.30651-5.3726-2.8009 0.70298c-3.7 0.93-5.31 2.36-5.31 4.73 0 8.0724 7.3458 8.0152 7.8065-0.0608z"/>
</svg>
