<svg width="400" height="400" viewBox="0 0 400 400" fill="none" xmlns="http://www.w3.org/2000/svg">
<mask id="path-1-inside-1_6_3" fill="white">
<path fill-rule="evenodd" clip-rule="evenodd" d="M396.151 34.8198L364.332 3L311.372 55.96V16.9834H266.372V100.96L250.372 116.96V16.9834H205.372V161.96L189.372 177.96V16.9834H144.372V222.96L128.372 238.96V16.9834H83.3716V283.96L3 364.332L34.8198 396.151L83.3716 347.6V375.983H128.372V302.6L144.372 286.6V375.983H189.372V241.6L205.372 225.6V375.983H250.372V180.6L266.372 164.6V375.983H311.372V119.6L396.151 34.8198Z"/>
</mask>
<path fill-rule="evenodd" clip-rule="evenodd" d="M396.151 34.8198L364.332 3L311.372 55.96V16.9834H266.372V100.96L250.372 116.96V16.9834H205.372V161.96L189.372 177.96V16.9834H144.372V222.96L128.372 238.96V16.9834H83.3716V283.96L3 364.332L34.8198 396.151L83.3716 347.6V375.983H128.372V302.6L144.372 286.6V375.983H189.372V241.6L205.372 225.6V375.983H250.372V180.6L266.372 164.6V375.983H311.372V119.6L396.151 34.8198Z" fill="black"/>
<path d="M364.332 3L372.11 -4.77817L364.332 -12.5563L356.553 -4.77817L364.332 3ZM396.151 34.8198L403.93 42.598L411.708 34.8198L403.93 27.0416L396.151 34.8198ZM311.372 55.96H300.372V82.5163L319.15 63.7381L311.372 55.96ZM311.372 16.9834H322.372V5.9834H311.372V16.9834ZM266.372 16.9834V5.9834H255.372V16.9834H266.372ZM266.372 100.96L274.15 108.738L277.372 105.516V100.96H266.372ZM250.372 116.96H239.372V143.516L258.15 124.738L250.372 116.96ZM250.372 16.9834H261.372V5.9834H250.372V16.9834ZM205.372 16.9834V5.9834H194.372V16.9834H205.372ZM205.372 161.96L213.15 169.738L216.372 166.516V161.96H205.372ZM189.372 177.96H178.372V204.516L197.15 185.738L189.372 177.96ZM189.372 16.9834H200.372V5.9834H189.372V16.9834ZM144.372 16.9834V5.9834H133.372V16.9834H144.372ZM144.372 222.96L152.15 230.738L155.372 227.516V222.96H144.372ZM128.372 238.96H117.372V265.516L136.15 246.738L128.372 238.96ZM128.372 16.9834H139.372V5.9834H128.372V16.9834ZM83.3716 16.9834V5.9834H72.3716V16.9834H83.3716ZM83.3716 283.96L91.1498 291.738L94.3716 288.516V283.96H83.3716ZM3 364.332L-4.77817 356.553L-12.5564 364.332L-4.77817 372.11L3 364.332ZM34.8198 396.151L27.0416 403.93L34.8198 411.708L42.598 403.93L34.8198 396.151ZM83.3716 347.6H94.3716V321.043L75.5934 339.821L83.3716 347.6ZM83.3716 375.983H72.3716V386.983H83.3716V375.983ZM128.372 375.983V386.983H139.372V375.983H128.372ZM128.372 302.6L120.593 294.821L117.372 298.043V302.6H128.372ZM144.372 286.6H155.372V260.043L136.593 278.821L144.372 286.6ZM144.372 375.983H133.372V386.983H144.372V375.983ZM189.372 375.983V386.983H200.372V375.983H189.372ZM189.372 241.6L181.593 233.821L178.372 237.043V241.6H189.372ZM205.372 225.6H216.372V199.043L197.593 217.821L205.372 225.6ZM205.372 375.983H194.372V386.983H205.372V375.983ZM250.372 375.983V386.983H261.372V375.983H250.372ZM250.372 180.6L242.593 172.821L239.372 176.043V180.6H250.372ZM266.372 164.6H277.372V138.043L258.593 156.821L266.372 164.6ZM266.372 375.983H255.372V386.983H266.372V375.983ZM311.372 375.983V386.983H322.372V375.983H311.372ZM311.372 119.6L303.593 111.821L300.372 115.043V119.6H311.372ZM356.553 10.7782L388.373 42.598L403.93 27.0416L372.11 -4.77817L356.553 10.7782ZM319.15 63.7381L372.11 10.7782L356.553 -4.77817L303.593 48.1818L319.15 63.7381ZM322.372 55.96V16.9834H300.372V55.96H322.372ZM311.372 5.9834H266.372V27.9834H311.372V5.9834ZM255.372 16.9834V100.96H277.372V16.9834H255.372ZM258.15 124.738L274.15 108.738L258.593 93.1818L242.593 109.182L258.15 124.738ZM261.372 116.96V16.9834H239.372V116.96H261.372ZM250.372 5.9834H205.372V27.9834H250.372V5.9834ZM194.372 16.9834V161.96H216.372V16.9834H194.372ZM197.15 185.738L213.15 169.738L197.593 154.182L181.593 170.182L197.15 185.738ZM178.372 16.9834V177.96H200.372V16.9834H178.372ZM144.372 27.9834H189.372V5.9834H144.372V27.9834ZM155.372 222.96V16.9834H133.372V222.96H155.372ZM136.15 246.738L152.15 230.738L136.593 215.182L120.593 231.182L136.15 246.738ZM139.372 238.96V16.9834H117.372V238.96H139.372ZM128.372 5.9834H83.3716V27.9834H128.372V5.9834ZM72.3716 16.9834V283.96H94.3716V16.9834H72.3716ZM10.7782 372.11L91.1498 291.738L75.5934 276.182L-4.77817 356.553L10.7782 372.11ZM42.598 388.373L10.7782 356.553L-4.77817 372.11L27.0416 403.93L42.598 388.373ZM75.5934 339.821L27.0416 388.373L42.598 403.93L91.1498 355.378L75.5934 339.821ZM72.3716 347.6V375.983H94.3716V347.6H72.3716ZM83.3716 386.983H128.372V364.983H83.3716V386.983ZM139.372 375.983V302.6H117.372V375.983H139.372ZM136.593 278.821L120.593 294.821L136.15 310.378L152.15 294.378L136.593 278.821ZM155.372 375.983V286.6H133.372V375.983H155.372ZM189.372 364.983H144.372V386.983H189.372V364.983ZM178.372 241.6V375.983H200.372V241.6H178.372ZM197.593 217.821L181.593 233.821L197.15 249.378L213.15 233.378L197.593 217.821ZM194.372 225.6V375.983H216.372V225.6H194.372ZM205.372 386.983H250.372V364.983H205.372V386.983ZM261.372 375.983V180.6H239.372V375.983H261.372ZM258.593 156.821L242.593 172.821L258.15 188.378L274.15 172.378L258.593 156.821ZM255.372 164.6V375.983H277.372V164.6H255.372ZM266.372 386.983H311.372V364.983H266.372V386.983ZM322.372 375.983V119.6H300.372V375.983H322.372ZM388.373 27.0416L303.593 111.821L319.15 127.378L403.93 42.598L388.373 27.0416Z" fill="white" mask="url(#path-1-inside-1_6_3)"/>
</svg>
